<?xml version="1.0" encoding="UTF-8"?><svg id="Vrstva_1" xmlns="http://www.w3.org/2000/svg" viewBox="0 0 141.73 141.73"><defs><style>.cls-1{fill:#bf2173;}.cls-2{fill:#31286e;}</style></defs><path class="cls-1" d="M11,134.66H-.57v-23.14H11c20.52,0,27.04-20.42,34.64-51.58,6.15-25.18,13.11-53.72,39.41-53.72,16.55,0,21.87,15.13,25.38,25.15,5.03,14.33,8.01,19.74,19.5,19.74h11.57v23.14h-11.57c-28.98,0-36.72-22.05-41.34-35.22-1.13-3.23-2.8-7.97-4.05-9.66-1.71,.07-4.26,.73-7.55,7.26-3.58,7.11-6.15,17.64-8.87,28.8-7.13,29.22-16.9,69.23-57.13,69.23Z"/><rect class="cls-2" x="-.23" y="7.38" width="18.51" height="90.26"/><rect class="cls-2" x="62.83" y="112.1" width="78.68" height="18.51"/></svg>