<svg id="Vrstva_1" data-name="Vrstva 1" xmlns="http://www.w3.org/2000/svg" viewBox="0 0 143.36 55.57"><defs><style>.cls-1{fill:#fff;}</style></defs><path class="cls-1" d="M14.17,4.5Q6.31,4.5,3.13,8T0,18.16v7.19Q0,32,3.13,35.47t11,3.55q7.86,0,11-3.55t3.13-10.12V18.16q0-6.67-3.13-10.12T14.17,4.5Zm7.24,20.86h0q0,4-1.44,5.55t-5.8,1.7c-2.91,0-4.81-.57-5.8-1.7S6.93,28,6.93,25.36V18.17q0-4,1.45-5.55c1-1.13,2.93-1.7,5.8-1.7s4.81.57,5.8,1.7,1.44,2.91,1.44,5.55v7.19Z"/><path class="cls-1" d="M53.41,25.77q6.93-1.8,6.93-10.12h0Q60.34,5,49,5H40.57c-2.16,0-3.72.49-4.7,1.46S34.4,9,34.4,11.12V35.37A3.53,3.53,0,0,0,35,37.73a3.39,3.39,0,0,0,2.39.62h.92a3.39,3.39,0,0,0,2.39-.62,3.53,3.53,0,0,0,.59-2.36V26.28H46l6.69,9.39c.68,1,14,18.81,14.64,19.15s.34.75,1.5.75h3.38c1.2,0,3.58-.41,3.76-.75s-14.37-18.19-15-19.15ZM49,19.86H41.28V12.93a1.27,1.27,0,0,1,0-.39,1.38,1.38,0,0,1,1.54-1.16H49a4.81,4.81,0,0,1,3.42,1,4.39,4.39,0,0,1,1.05,3.24Q53.46,19.87,49,19.86Z"/><path class="cls-1" d="M67.33,35.38a3.53,3.53,0,0,0,.59,2.36,3.39,3.39,0,0,0,2.39.62h.92a3.39,3.39,0,0,0,2.39-.62,3.53,3.53,0,0,0,.59-2.36V8a3.53,3.53,0,0,0-.59-2.36A3.39,3.39,0,0,0,71.23,5h-.92a3.39,3.39,0,0,0-2.39.62A3.47,3.47,0,0,0,67.33,8V35.38Z"/><path class="cls-1" d="M136.27,39q3.71,0,5.29-1.8t1.59-6.11V8a3.53,3.53,0,0,0-.59-2.36A3.39,3.39,0,0,0,140.17,5h-.72a3.39,3.39,0,0,0-2.39.62A3.47,3.47,0,0,0,136.47,8V31.78a2.86,2.86,0,0,1-.15,1.16.64.64,0,0,1-.62.28c-.48,0-.79-.36-.92-1.08l-5.34-21.52c-.58-2.4-1.4-4-2.44-4.93a7.26,7.26,0,0,0-4.75-1.34q-3.85,0-5.5,1.8c-1.1,1.2-1.64,3.24-1.64,6.11V35.37h0a3.53,3.53,0,0,0,.59,2.36,3.39,3.39,0,0,0,2.39.62h.72a3.39,3.39,0,0,0,2.39-.62,3.47,3.47,0,0,0,.59-2.36V11.65a3.84,3.84,0,0,1,.13-1.26.59.59,0,0,1,.59-.28.72.72,0,0,1,.64.26,4.09,4.09,0,0,1,.39,1.18l5.24,21c.62,2.43,1.46,4.12,2.54,5.06a7.39,7.39,0,0,0,5,1.41Z"/><path class="cls-1" d="M79.73,41.24H78.1a1,1,0,0,0-1.19,1.19V48a.31.31,0,0,0,.38.38h.11a.31.31,0,0,0,.38-.38V45.78h2a2.47,2.47,0,0,0,1.81-.56,2.29,2.29,0,0,0,.57-1.71,2.32,2.32,0,0,0-.57-1.72A2.52,2.52,0,0,0,79.73,41.24Zm1.19,3.41a1.68,1.68,0,0,1-1.19.33h-2V42.56a.56.56,0,0,1,.12-.4.55.55,0,0,1,.4-.12h1.44a1.71,1.71,0,0,1,1.19.33,1.53,1.53,0,0,1,.34,1.13,1.55,1.55,0,0,1-.34,1.14Z"/><path class="cls-1" d="M85.48,42.23a2.49,2.49,0,0,0-2,.83,3.42,3.42,0,0,0-.74,2.34,3.38,3.38,0,0,0,.72,2.31,2.71,2.71,0,0,0,3.91,0,4.12,4.12,0,0,0,0-4.68A2.47,2.47,0,0,0,85.48,42.23Zm1.21,4.89a1.57,1.57,0,0,1-2.43,0,2.84,2.84,0,0,1-.43-1.71,2.89,2.89,0,0,1,.43-1.73,1.43,1.43,0,0,1,1.22-.57,1.41,1.41,0,0,1,1.21.57,2.92,2.92,0,0,1,.42,1.73,2.81,2.81,0,0,1-.43,1.72Z"/><path class="cls-1" d="M111.24,20.62C96.66,18.61,93.9.15,93.88,0h0c0,.14-2.83,18.42-17.41,20.43,0,0,16.41.72,17.37,23.39V46.1c0-.41,0-.8,0-1.19,0,.34,0,.67,0,1v-2c1-22.57,17.36-23.28,17.36-23.28Z"/><path class="cls-1" d="M91.58,42.26a3.12,3.12,0,0,0-1.14.21,2.22,2.22,0,0,0-.88.6A2.8,2.8,0,0,0,89,44a4,4,0,0,0-.21,1.36A4.13,4.13,0,0,0,89,46.78a2.71,2.71,0,0,0,.57,1,2.37,2.37,0,0,0,.89.58,3.19,3.19,0,0,0,1.13.19,2.66,2.66,0,0,0,.53,0l.46-.12a2.32,2.32,0,0,0,.41-.15l.38-.17V46.91H93.3a3.12,3.12,0,0,1-.79.53,2.18,2.18,0,0,1-.94.2,1.55,1.55,0,0,1-1.28-.59,3.2,3.2,0,0,1,0-3.34,1.53,1.53,0,0,1,1.26-.59,2.22,2.22,0,0,1,.55.08,2.28,2.28,0,0,1,.49.19,3,3,0,0,1,.41.24l.28.21h.06V42.71a4.84,4.84,0,0,0-.82-.32,3.36,3.36,0,0,0-1-.14Z"/><polygon class="cls-1" points="98.91 42.39 97.65 42.39 95.28 44.93 95.28 40.04 94.27 40.04 94.27 48.39 95.28 48.39 95.28 45.89 95.68 45.5 97.92 48.39 99.24 48.39 96.45 44.9 98.91 42.39"/><path class="cls-1" d="M103.6,42.89a1.8,1.8,0,0,0-.75-.5,2.78,2.78,0,0,0-1-.16,2.55,2.55,0,0,0-2,.87,3.41,3.41,0,0,0-.77,2.33,3.18,3.18,0,0,0,.79,2.3,3,3,0,0,0,2.23.81,3.39,3.39,0,0,0,.6,0l.54-.12a4.38,4.38,0,0,0,.47-.16l.44-.17V47h-.06a3.3,3.3,0,0,1-.77.46,2.82,2.82,0,0,1-.58.19,2.89,2.89,0,0,1-.65.08,1.93,1.93,0,0,1-1.46-.55,2.24,2.24,0,0,1-.53-1.6h4.16V45a4,4,0,0,0-.17-1.22,2.33,2.33,0,0,0-.49-.84Zm-3.49,1.83a2.2,2.2,0,0,1,.15-.67,1.61,1.61,0,0,1,.34-.52,1.72,1.72,0,0,1,.51-.35,1.78,1.78,0,0,1,.69-.12,1.69,1.69,0,0,1,.68.12,1.1,1.1,0,0,1,.45.34,1.47,1.47,0,0,1,.25.5,2.8,2.8,0,0,1,.1.7Z"/><path class="cls-1" d="M106.36,40.67h-1v1.72h-.68v.84h.68v3.33a2.06,2.06,0,0,0,.46,1.49,1.75,1.75,0,0,0,1.29.47,3.61,3.61,0,0,0,.54-.05,3.75,3.75,0,0,0,.58-.13v-.91h-.06l-.33.12a1.51,1.51,0,0,1-.48.07,1.37,1.37,0,0,1-.55-.09.63.63,0,0,1-.3-.28,1.21,1.21,0,0,1-.12-.46c0-.17,0-.4,0-.7V43.24h1.86V42.4h-1.86V40.68Z"/><path class="cls-1" d="M116.32,41.24h-3.11A1,1,0,0,0,112,42.43V47.2a1,1,0,0,0,1.19,1.19h3.11c.14,0,.23,0,.27-.07a.42.42,0,0,0,.07-.27v-.12a.39.39,0,0,0-.07-.28.38.38,0,0,0-.27-.07h-2.93a.56.56,0,0,1-.4-.12.55.55,0,0,1-.12-.4v-2h3a.28.28,0,0,0,.35-.35v-.12c0-.14,0-.23-.07-.27a.45.45,0,0,0-.28-.07h-3V42.54a.56.56,0,0,1,.12-.4.55.55,0,0,1,.4-.12h2.93c.14,0,.23,0,.27-.07a.45.45,0,0,0,.07-.28v-.12a.39.39,0,0,0-.07-.28.38.38,0,0,0-.27-.07Z"/><path class="cls-1" d="M121.48,42.64a3.77,3.77,0,0,0-.7-.31,2.59,2.59,0,0,0-.78-.1,2.15,2.15,0,0,0-1,.22,2.36,2.36,0,0,0-.79.62,3.1,3.1,0,0,0-.56,1,4,4,0,0,0-.2,1.37,4.82,4.82,0,0,0,.16,1.34,2.87,2.87,0,0,0,.46,1,2,2,0,0,0,.71.6,2,2,0,0,0,.91.2,2.23,2.23,0,0,0,.54-.06,2.69,2.69,0,0,0,.45-.16,1.93,1.93,0,0,0,.4-.24c.11-.09.25-.19.41-.33v.61h1V40h-1v2.6Zm0,4.3a3.28,3.28,0,0,1-.76.49,2,2,0,0,1-.8.18,1.16,1.16,0,0,1-1.08-.56,3.2,3.2,0,0,1-.34-1.62,2.82,2.82,0,0,1,.44-1.68,1.43,1.43,0,0,1,1.22-.58,2.7,2.7,0,0,1,.65.07,3.53,3.53,0,0,1,.67.25V47Z"/><rect class="cls-1" x="123.91" y="40.34" width="1.15" height="1.05"/><rect class="cls-1" x="123.98" y="42.39" width="1.01" height="6"/><path class="cls-1" d="M127.56,40.67h-1v1.72h-.68v.84h.68v3.33a2.06,2.06,0,0,0,.46,1.49,1.75,1.75,0,0,0,1.29.47,3.74,3.74,0,0,0,.54-.05,4,4,0,0,0,.58-.13v-.91h-.06l-.33.12a1.51,1.51,0,0,1-.48.07,1.37,1.37,0,0,1-.55-.09.57.57,0,0,1-.29-.28,1.21,1.21,0,0,1-.12-.46c0-.17,0-.4,0-.7V43.24h1.86V42.4h-1.86V40.68Z"/><rect class="cls-1" x="130.12" y="40.34" width="1.15" height="1.05"/><rect class="cls-1" x="130.19" y="42.39" width="1.01" height="6"/><path class="cls-1" d="M134.94,42.23a2.49,2.49,0,0,0-1.95.83,3.42,3.42,0,0,0-.74,2.34,3.38,3.38,0,0,0,.72,2.31,2.71,2.71,0,0,0,3.91,0,4.12,4.12,0,0,0,0-4.68A2.48,2.48,0,0,0,134.94,42.23Zm1.21,4.89a1.57,1.57,0,0,1-2.43,0,2.84,2.84,0,0,1-.43-1.71,2.89,2.89,0,0,1,.43-1.73,1.43,1.43,0,0,1,1.22-.57,1.41,1.41,0,0,1,1.21.57,2.92,2.92,0,0,1,.42,1.73,2.81,2.81,0,0,1-.43,1.72Z"/><path class="cls-1" d="M142.87,42.81a1.71,1.71,0,0,0-1.39-.58,2.11,2.11,0,0,0-.93.21,3.89,3.89,0,0,0-.89.62v-.67h-1v6h1V43.91a3.78,3.78,0,0,1,.78-.52,1.81,1.81,0,0,1,.78-.2,1.4,1.4,0,0,1,.6.11.75.75,0,0,1,.34.34,1.39,1.39,0,0,1,.15.57,6.29,6.29,0,0,1,0,.77V48.4h1V44.51a2.54,2.54,0,0,0-.5-1.69Z"/></svg>