<svg id="Group_19" data-name="Group 19" xmlns="http://www.w3.org/2000/svg" xmlns:xlink="http://www.w3.org/1999/xlink" width="28.856" height="28.4" viewBox="0 0 28.856 28.4">
  <defs>
    <clipPath id="clip-path">
      <rect id="Rectangle_37" data-name="Rectangle 37" width="28.856" height="28.4" fill="none"/>
    </clipPath>
  </defs>
  <g id="Group_18" data-name="Group 18" clip-path="url(#clip-path)">
    <path id="Path_20" data-name="Path 20" d="M32.873,35.5A11.911,11.911,0,1,0,44.785,47.411,11.911,11.911,0,0,0,32.873,35.5m0,21.2a9.24,9.24,0,1,1,9.284-9.24,9.262,9.262,0,0,1-9.284,9.24" transform="translate(-19.126 -32.391)" fill="#fff"/>
    <line id="Line_1" data-name="Line 1" y2="2.715" transform="translate(13.747 3.109)" fill="#fff"/>
    <rect id="Rectangle_19" data-name="Rectangle 19" width="3.766" height="3.766" transform="translate(23.688 12.875)" fill="#fff"/>
    <rect id="Rectangle_20" data-name="Rectangle 20" width="2.803" height="2.803" transform="translate(12.302 25.487)" fill="#fff"/>
    <rect id="Rectangle_21" data-name="Rectangle 21" width="2.803" height="2.803" transform="translate(0.391 13.576)" fill="#fff"/>
    <rect id="Rectangle_22" data-name="Rectangle 22" width="3.766" height="3.766" transform="translate(11.952 1.226)" fill="#fff"/>
    <rect id="Rectangle_23" data-name="Rectangle 23" width="3.766" height="3.766" transform="matrix(0.5, -0.866, 0.866, 0.5, 17.306, 5.55)" fill="#fff"/>
    <rect id="Rectangle_24" data-name="Rectangle 24" width="3.766" height="3.766" transform="matrix(0.866, -0.5, 0.5, 0.866, 21.422, 8.288)" fill="#fff"/>
    <rect id="Rectangle_25" data-name="Rectangle 25" width="3.766" height="3.766" transform="translate(0.128 12.787)" fill="#fff"/>
    <rect id="Rectangle_26" data-name="Rectangle 26" width="3.766" height="3.766" transform="translate(11.864 1.139)" fill="#fff"/>
    <rect id="Rectangle_27" data-name="Rectangle 27" width="3.766" height="3.766" transform="matrix(0.866, -0.5, 0.5, 0.866, 5.132, 4.084)" fill="#fff"/>
    <rect id="Rectangle_28" data-name="Rectangle 28" width="3.766" height="3.766" transform="matrix(0.57, -0.822, 0.822, 0.57, 0.967, 9.363)" fill="#fff"/>
    <rect id="Rectangle_29" data-name="Rectangle 29" width="3.766" height="3.766" transform="matrix(0.005, -1, 1, 0.005, 23.621, 16.75)" fill="#fff"/>
    <rect id="Rectangle_30" data-name="Rectangle 30" width="3.766" height="3.766" transform="translate(11.824 28.336) rotate(-89.698)" fill="#fff"/>
    <rect id="Rectangle_31" data-name="Rectangle 31" width="3.766" height="3.766" transform="translate(17.201 24.041) rotate(-29.699)" fill="#fff"/>
    <rect id="Rectangle_32" data-name="Rectangle 32" width="3.766" height="3.766" transform="matrix(0.574, -0.819, 0.819, 0.574, 21.284, 21.109)" fill="#fff"/>
    <rect id="Rectangle_33" data-name="Rectangle 33" width="3.766" height="3.766" transform="translate(0 13.047) rotate(-0.302)" fill="#fff"/>
    <rect id="Rectangle_34" data-name="Rectangle 34" width="3.766" height="3.766" transform="matrix(1, -0.005, 0.005, 1, 11.798, 24.634)" fill="#fff"/>
    <rect id="Rectangle_35" data-name="Rectangle 35" width="3.766" height="3.766" transform="translate(5.069 25.49) rotate(-60.301)" fill="#fff"/>
    <rect id="Rectangle_36" data-name="Rectangle 36" width="3.766" height="3.766" transform="translate(0.877 20.233) rotate(-35.057)" fill="#fff"/>
    <path id="Path_21" data-name="Path 21" d="M167.366,47.075v-.109h1.771a11.861,11.861,0,0,0-.626-2.21l-1.526.884-1.876-3.262,1.493-.865a11.957,11.957,0,0,0-1.478-1.5l-.867,1.508-3.249-1.883.905-1.574a11.743,11.743,0,0,0-2.487-.7v1.72h-1.963v.832a9.244,9.244,0,0,1,9.248,9.153h.6l.01-1.993Z" transform="translate(-143.671 -34.091)" fill="#b41e6f"/>
    <path id="Path_22" data-name="Path 22" d="M272.24,147h-1.777v.109l3.719.02-.01,1.974h.058V147Z" transform="translate(-246.774 -134.125)" fill="#939292"/>
    <path id="Path_23" data-name="Path 23" d="M200.854,31.275l.87-1.508,1.013-1.754-3.262-1.883-.974,1.688-.909,1.574Z" transform="translate(-180.287 -23.842)" fill="#b41e6f"/>
    <path id="Path_24" data-name="Path 24" d="M246.476,78.275l1.532-.884,1.73-1-1.883-3.262-1.763,1.018-1.5.865Z" transform="translate(-223.17 -66.725)" fill="#b41e6f"/>
    <path id="Path_25" data-name="Path 25" d="M159.331,16.967l-.022-3.935v-.094l-1.974.011.022,4.029Z" transform="translate(-143.555 -11.805)" fill="#b41e6f"/>
    <path id="Path_26" data-name="Path 26" d="M269.863,144h-.047l-.011,2.365h3.766l.01-2.341Z" transform="translate(-246.175 -131.388)" fill="#b41e6f"/>
  </g>
</svg>
