<svg xmlns="http://www.w3.org/2000/svg" viewBox="0 0 405.24 331.22"><defs><style>.cls-1{fill:#423e90;}</style></defs><g id="Vrstva_2" data-name="Vrstva 2"><g id="Vrstva_1-2" data-name="Vrstva 1"><g id="Hvězdy"><g id="Stars"><g id="Group_3" data-name="Group 3"><g id="High"><path id="Path_10" data-name="Path 10" class="cls-1" d="M402.31,36.58s-16.4-2.9-18.31,11.83c0,0-.4-19.26-14.44-18.5,0,0,15.26.64,19.75-7.35,0,0-.85,12.17,13,14"/><path id="Path_11" data-name="Path 11" class="cls-1" d="M336,43.65s-14,.77-13.06-13.15c0,0-7.37,17.84-16.07,17.23,0,0,11.49-1.81,15.11,8.93,0,0,1.6-10.38,14-13"/><path id="Path_12" data-name="Path 12" class="cls-1" d="M331.25,15.08S314.48,17.4,315.7,0c0,0-5.82,20.57-16.26,19.84,0,0,16.47,2,16.73,10.79,0,0,3.59-13.74,15.08-15.55"/><path id="Path_13" data-name="Path 13" class="cls-1" d="M402,77.45S385.41,81,385.39,63.52c0,0-4.33,20.94-14.8,20.95,0,0,16.57.85,17.46,9.57,0,0,2.59-14,13.93-16.59"/><path id="Path_14" data-name="Path 14" class="cls-1" d="M262.39,114.18S246,111.28,244.08,126c0,0-.4-19.26-14.44-18.5,0,0,15.25.63,19.75-7.36,0,0-.85,12.18,13,14"/><path id="Path_19" data-name="Path 19" class="cls-1" d="M232,56.48S218,57.25,219,43.33c0,0-7.37,17.84-16.07,17.23,0,0,11.49-1.81,15.11,8.93,0,0,1.6-10.38,14-13"/><path id="Path_20" data-name="Path 20" class="cls-1" d="M221.09,141.94s-16.78,2.33-15.56-15.07c0,0-5.81,20.57-16.25,19.84,0,0,16.47,2,16.73,10.79,0,0,3.58-13.74,15.08-15.56"/><path id="Path_21" data-name="Path 21" class="cls-1" d="M128,87.3s-16.41-2.9-18.32,11.83c0,0-.4-19.26-14.44-18.5,0,0,15.26.64,19.75-7.35,0,0-.85,12.17,13,14"/><path id="Path_22" data-name="Path 22" class="cls-1" d="M147.72,124.86s-14,.77-13.07-13.15c0,0-7.37,17.84-16.07,17.23,0,0,11.49-1.81,15.11,8.93,0,0,1.6-10.38,14-13"/><path id="Path_23" data-name="Path 23" class="cls-1" d="M131.89,106s-11.68,1.79-10.77-11.22c0,0-4.12,15.4-11.38,14.89,0,0,11.45,1.46,11.6,8,0,0,2.55-10.28,10.55-11.68"/><path id="Path_24" data-name="Path 24" class="cls-1" d="M109.53,148.58s-15.85-5.12-19.76,9.21c0,0,2.24-19.13-11.77-20.29,0,0,15,2.71,20.57-4.59,0,0-2.52,12,11,15.67"/><path id="Path_25" data-name="Path 25" class="cls-1" d="M33.74,155.34s-14,.77-13.07-13.15c0,0-7.37,17.84-16.07,17.23,0,0,11.49-1.81,15.11,8.93,0,0,1.6-10.38,14-13"/><path id="Path_26" data-name="Path 26" class="cls-1" d="M31.34,72.49s-16.46-4-8.95-19.73c0,0-12.94,17-22.39,12.51,0,0,14.58,7.92,11.62,16.17,0,0,8.36-11.47,19.72-9"/><path id="Path_15" data-name="Path 15" class="cls-1" d="M345.89,137.49s-6.54-13.33,7.38-18.13c0,0-20.37.21-23.37-8.49,0,0,6.51,10.41-2.44,18.36,0,0,10.75-2.73,18.43,8.26"/><path id="Path_17" data-name="Path 17" class="cls-1" d="M299.51,102.75s-5.54-12,4.6-15.45c0,0-15.17-.84-17.84-8.58,0,0,5.37,9.41-.9,15.91,0,0,7.87-1.85,14.14,8.12"/></g><g id="Low"><path id="Path_9" data-name="Path 9" class="cls-1" d="M329.4,303.53s-10.21,4-12.92-6.88c0,0-1.06,15.42-7.65,17.06,0,0,8.06-4.17,13.39,3.16,0,0-1.37-8.32,7.18-13.34"/><path id="Path_27" data-name="Path 27" class="cls-1" d="M396.94,324.05s-14.26-5.77-18.8,7.17c0,0,3.33-17.47-9.49-19.47,0,0,13.65,3.49,19.24-2.86,0,0-3.1,10.83,9.06,15.16"/><path id="Path_30" data-name="Path 30" class="cls-1" d="M405.24,266.36s-10.59,1.24-8.32,12.63c0,0-4.71-14.3-13-10.82,0,0,9.37-2.69,10.24-9.58,0,0,2.31,9.27,11.11,7.77"/></g></g></g></g></g></g></svg>