<?xml version="1.0" encoding="utf-8"?>
<!-- Generator: Adobe Illustrator 26.3.1, SVG Export Plug-In . SVG Version: 6.00 Build 0)  -->
<svg version="1.1" id="Vrstva_1" xmlns="http://www.w3.org/2000/svg" xmlns:xlink="http://www.w3.org/1999/xlink" x="0px" y="0px"
	 viewBox="0 0 1920 1080" style="enable-background:new 0 0 1920 1080;" xml:space="preserve">
<style type="text/css">
	.st0{fill:none;stroke:#28295D;stroke-width:0.5;stroke-miterlimit:10;}
	.st1{fill:#525251;}
	.st2{fill:#3C3C3B;}
	.st3{fill:#706F6F;}
	.st4{fill:#858584;}
</style>
<g>
	<path class="st0" d="M1153.03,338.32"/>
	<path class="st0" d="M1138.13,293.63"/>
	<path class="st0" d="M1123.23,278.73"/>
	<path class="st0" d="M1153.03,308.53"/>
	<g>
		<path class="st1" d="M1114.63,264.08c0,0,2.14,16.59-14.96,16.59c0,0,22.44,7.26,22.44,17.62c0,0-3.21-13.48,9.62-18.66
			C1131.73,279.63,1118.9,278.59,1114.63,264.08z"/>
		<path d="M774.87,48.04c0,0-2.81,26.67,21.05,28.07c0,0-30.88,2.81-28.07,25.26c0,0-0.7-24.56-14.04-30.88
			C753.82,70.5,773.47,70.5,774.87,48.04z"/>
		<path d="M793.69,153.84c0,0,2.81,22.46-19.65,22.46c0,0,29.47,9.82,29.47,23.86c0,0-4.21-18.25,12.63-25.26
			C816.15,174.89,799.3,173.49,793.69,153.84z"/>
		<path class="st2" d="M748.31,164.61c0,0,5.61,26.67-22.46,26.67c0,0,33.69,7.02,33.69,23.86c0,0,1.4-26.67,15.44-28.07
			C774.98,187.06,752.52,182.85,748.31,164.61z"/>
		<path d="M840.55,44c0,0,7.5,26.2-20.5,28.2c0,0,34.1,4.6,35.3,21.39c0,0-0.5-26.7,13.4-29.1C868.76,64.49,846.06,61.9,840.55,44z"
			/>
		<path class="st1" d="M915.23,264.07c0,0-2.81,26.67,21.05,28.07c0,0-30.88,2.81-28.07,25.26c0,0-0.7-24.56-14.04-30.88
			C894.17,286.53,913.82,286.53,915.23,264.07z"/>
		<path class="st2" d="M1068.79,143.9c0,0,2.81,22.46-19.65,22.46c0,0,29.47,9.82,29.47,23.86c0,0-4.21-18.25,12.63-25.26
			C1091.24,164.95,1074.4,163.55,1068.79,143.9z"/>
		<path class="st2" d="M1030.09,137.76c0,0-2.22,21.05,16.62,22.16c0,0-24.37,2.22-22.16,19.94c0,0-0.55-19.39-11.08-24.37
			C1013.48,155.49,1028.99,155.49,1030.09,137.76z"/>
		<path class="st2" d="M1115.37,174.25c0,0,2.04,19.99-14.31,19.99c0,0,21.46,8.75,21.46,21.24c0,0-3.07-16.24,9.2-22.49
			C1131.73,192.99,1119.46,191.74,1115.37,174.25z"/>
		<path d="M1158.19,147.62c0,0,0.46,23.4-21.03,19.76c0,0,24.78,10.33,22.35,24.65c0,0,4.91-22.49,15.86-21.87
			C1175.37,170.16,1158.79,163.68,1158.19,147.62z"/>
		<path class="st3" d="M825.97,319.34c0,0,2.81,22.46-19.65,22.46c0,0,29.47,9.82,29.47,23.86c0,0-4.21-18.25,12.63-25.26
			C848.43,340.39,831.59,338.99,825.97,319.34z"/>
		<path class="st3" d="M964.46,327.3c0,0,5.61,26.67-22.46,26.67c0,0,33.69,7.02,33.69,23.86c0,0,1.4-26.67,15.44-28.07
			C991.13,349.76,968.67,345.54,964.46,327.3z"/>
		<path class="st4" d="M887.16,483.03c0,0-2.81,26.67,21.05,28.07c0,0-30.88,2.81-28.07,25.26c0,0-0.7-24.56-14.04-30.88
			C866.1,505.48,885.75,505.48,887.16,483.03z"/>
		<path class="st4" d="M945.27,447.06c0,0,2.81,22.46-19.65,22.46c0,0,29.47,9.82,29.47,23.86c0,0-4.21-18.25,12.63-25.26
			C967.73,468.12,950.89,466.71,945.27,447.06z"/>
		<path class="st4" d="M916.69,474.61c0,0,4.2,18.55-16.79,18.55c0,0,25.19,4.88,25.19,16.6c0,0,1.05-18.55,11.55-19.53
			C936.63,490.23,919.84,487.3,916.69,474.61z"/>
		<path class="st4" d="M987.65,505.73c0,0-6.43,26.03,17.02,30.68c0,0-30.97-1.44-31.26,21.19c0,0,2.66-24.43-9.68-32.51
			C963.72,525.1,983.19,527.79,987.65,505.73z"/>
		<path class="st4" d="M1007.03,626.72c0,0,2.81,22.46-19.65,22.46c0,0,29.47,9.82,29.47,23.86c0,0-4.21-18.25,12.63-25.26
			C1029.49,647.77,1012.64,646.37,1007.03,626.72z"/>
		<path class="st4" d="M874.2,639.87c0,0-4.54,26.87-30.66,16.59c0,0,28.78,18.86,22.61,34.54c0,0,11.07-24.3,24.64-20.47
			C890.8,670.53,871.44,658.39,874.2,639.87z"/>
		<path class="st3" d="M1113.3,404.07c0,0-2.46,23.34,18.42,24.56c0,0-27.02,2.46-24.56,22.11c0,0-0.61-21.49-12.28-27.02
			C1094.88,423.72,1112.08,423.72,1113.3,404.07z"/>
		<path class="st3" d="M1150.37,391.8c0,0,2.23,20.67-15.62,20.67c0,0,23.43,9.04,23.43,21.96c0,0-3.35-16.79,10.04-23.25
			C1168.22,411.18,1154.83,409.89,1150.37,391.8z"/>
		<path class="st3" d="M1156.81,345.77c0,0-2.08,19.5,15.62,20.53c0,0-22.9,2.05-20.82,18.48c0,0-0.52-17.96-10.41-22.58
			C1141.2,362.2,1155.77,362.2,1156.81,345.77z"/>
		<path class="st1" d="M1133.49,295.82c0,0-2.08,16.14,15.62,16.99c0,0-22.9,1.7-20.82,15.29c0,0-0.52-14.86-10.41-18.69
			C1117.88,309.41,1132.45,309.41,1133.49,295.82z"/>
	</g>
</g>
<g>
	<path class="st0" d="M191.53-178.38"/>
	<path class="st0" d="M156.93-171.19"/>
	<path class="st0" d="M144.53-161.39"/>
	<path class="st0" d="M169.33-180.98"/>
	<g>
		<path d="M132.86-156.26c0,0,12.54-0.14,11.05,12.6c0,0,7.37-16.09,15.09-15.18c0,0-10.32,1.21-13.06-8.8
			C145.94-167.64,144.04-158.17,132.86-156.26z"/>
		<path d="M-57.78,78c0,0,19.62,4.42,22.75-13.23c0,0-0.61,23.25,16.37,23.12c0,0-18.36-1.62-24.23,7.76
			C-42.89,95.65-41.17,81.01-57.78,78z"/>
		<path d="M22.69,73.23c0,0,16.98-0.13,15.01,16.6c0,0,9.9-21.1,20.35-19.88c0,0-13.96,1.54-17.72-11.62
			C40.33,58.33,37.82,70.76,22.69,73.23z"/>
		<path d="M26.74,107.97c0,0,20.36-1.85,17.91,19.06c0,0,8.17-24.48,20.72-23.01c0,0-19.75-3.38-19.57-13.96
			C45.8,90.07,40.7,106.43,26.74,107.97z"/>
		<path d="M-55.06,28.71c0,0,20.17-3.3,19.22,17.73c0,0,6.4-25.01,19.02-24.43c0,0-19.94-1.96-20.51-12.52
			C-37.33,9.49-41.24,26.18-55.06,28.71z"/>
		<path d="M115.43-7.69c0,0,19.62,4.42,22.75-13.23c0,0-0.61,23.25,16.37,23.12c0,0-18.36-1.62-24.23,7.76
			C130.32,9.95,132.04-4.69,115.43-7.69z"/>
		<path d="M39.31-132.6c0,0,16.98-0.13,15.01,16.6c0,0,9.9-21.1,20.35-19.88c0,0-13.96,1.54-17.72-11.62
			C56.96-147.5,54.44-135.07,39.31-132.6z"/>
		<path d="M31.36-104.31c0,0,15.49,3.49,17.96-10.45c0,0-0.48,18.35,12.92,18.25c0,0-14.49-1.28-19.13,6.12
			C43.11-90.38,44.47-101.94,31.36-104.31z"/>
		<path d="M66-164.66c0,0,15.07,0.22,13.64,12.41c0,0,8.39-15.23,17.7-14.13c0,0-12.37,0.87-15.95-8.82
			C81.39-175.21,79.38-166.18,66-164.66z"/>
		<path d="M49.89-198.89c0,0,17.47,1.7,12.89,17.39c0,0,9.86-17.56,20.32-14.5c0,0-16.33-5.62-14.91-13.72
			C68.19-209.72,61.91-197.93,49.89-198.89z"/>
		<path d="M148.81,63.63c0,0,16.98-0.13,15.01,16.6c0,0,9.9-21.1,20.35-19.88c0,0-13.96,1.54-17.72-11.62
			C166.46,48.74,163.94,61.17,148.81,63.63z"/>
		<path d="M166.84-38.85c0,0,20.36-1.85,17.91,19.06c0,0,8.17-24.48,20.72-23.01c0,0-19.75-3.38-19.57-13.96
			C185.9-56.76,180.8-40.4,166.84-38.85z"/>
		<path d="M276.11,32.35c0,0,19.62,4.42,22.75-13.23c0,0-0.61,23.25,16.37,23.12c0,0-18.36-1.62-24.23,7.76
			C291,50,292.72,35.36,276.11,32.35z"/>
		<path d="M254.4-14.09c0,0,16.98-0.13,15.01,16.6c0,0,9.9-21.1,20.35-19.88c0,0-13.96,1.54-17.72-11.62
			C272.04-28.99,269.53-16.56,254.4-14.09z"/>
		<path d="M272.42,9.61c0,0,14.19-1.51,12.35,14.13c0,0,5.84-18.34,14.57-17.32c0,0-13.73-2.4-13.54-10.31
			C285.8-3.88,282.15,8.37,272.42,9.61z"/>
		<path d="M301.81-40.54c0,0,18.84,7.06,24.35-10c0,0-3.78,22.95,13.06,25.14c0,0-17.97-4.12-25.07,4.37
			C314.15-21.02,317.85-35.29,301.81-40.54z"/>
		<path d="M393.64-44.41c0,0,16.98-0.13,15.01,16.6c0,0,9.9-21.1,20.35-19.88c0,0-13.96,1.54-17.72-11.62
			C411.29-59.3,408.77-46.88,393.64-44.41z"/>
		<path d="M391.84,55.7c0,0,19.62,5.73,9.68,24.29c0,0,16.57-19.79,27.71-13.83c0,0-17.14-10.37-13.1-20.15
			C416.13,46.02,405.4,59.38,391.84,55.7z"/>
		<path d="M237.05-143.04c0,0,17.17,3.87,19.91-11.58c0,0-0.53,20.35,14.32,20.23c0,0-16.07-1.42-21.2,6.79
			C250.08-127.6,251.58-140.41,237.05-143.04z"/>
		<path d="M231.14-171.73c0,0,15.59,0.14,14.04,13.44c0,0,8.78-16.66,18.41-15.53c0,0-12.8,1.03-16.45-9.51
			C247.14-183.33,245-173.47,231.14-171.73z"/>
		<path d="M197.41-180.55c0,0,14.35,3.26,16.66-9.84c0,0-0.47,17.24,11.95,17.13c0,0-13.43-1.18-17.73,5.78
			C208.28-167.48,209.55-178.34,197.41-180.55z"/>
		<path d="M158.15-167.54c0,0,11.84,2.96,14.02-10.15c0,0-0.74,17.21,9.57,16.85c0,0-11.12-0.91-14.83,6.12
			C166.91-154.72,168.19-165.58,158.15-167.54z"/>
	</g>
</g>
<g>
	<path class="st0" d="M641.79,33.74"/>
	<path class="st0" d="M649.2-0.81"/>
	<path class="st0" d="M645.25-16.12"/>
	<path class="st0" d="M653.15,14.49"/>
	<g>
		<path d="M645.27-28.86c0,0-4.94,11.53-15.99,5.02c0,0,11.74,13.24,7.79,19.94c0,0,3.06-9.93,13.32-8.39
			C650.39-12.3,642.5-17.86,645.27-28.86z"/>
		<path d="M508.03-297.92c0,0-11.97,16.16,2.91,26.16c0,0-21.02-9.95-27.77,5.63c0,0,8.9-16.14,2.7-25.3
			C485.87-291.43,498.57-283.94,508.03-297.92z"/>
		<path d="M479.88-222.38c0,0-6.74,15.58-21.25,7.02c0,0,15.3,17.58,9.96,26.65c0,0,4.23-13.39,17.79-11.51
			C486.37-200.22,476.02-207.54,479.88-222.38z"/>
		<path d="M446.46-232.71c0,0-6.53,19.37-24.67,8.68c0,0,19.09,17.37,12.68,28.25c0,0,11.07-16.7,20.67-12.26
			C455.14-208.04,442.23-219.32,446.46-232.71z"/>
		<path d="M552.02-275.51c0,0-5.13,19.79-23.99,10.42c0,0,20.28,15.96,14.66,27.28c0,0,9.85-17.45,19.74-13.7
			C562.43-251.52,548.75-261.84,552.02-275.51z"/>
		<path d="M516.42-104.84c0,0-11.97,16.16,2.91,26.16c0,0-21.02-9.95-27.77,5.63c0,0,8.9-16.14,2.7-25.3
			C494.26-98.35,506.96-90.87,516.42-104.84z"/>
		<path d="M661.44-123.99c0,0-6.74,15.58-21.25,7.02c0,0,15.3,17.58,9.96,26.65c0,0,4.23-13.39,17.79-11.51
			C667.93-101.83,657.58-109.15,661.44-123.99z"/>
		<path d="M638.77-142.7c0,0-9.45,12.76,2.3,20.65c0,0-16.59-7.85-21.92,4.44c0,0,7.03-12.74,2.13-19.97
			C621.28-137.58,631.3-131.67,638.77-142.7z"/>
		<path d="M679.98-86.63c0,0-6.3,13.7-16.86,7.47c0,0,10.54,13.83,5.78,21.9c0,0,4.21-11.66,14.51-11.03
			C683.4-68.29,675.95-73.77,679.98-86.63z"/>
		<path d="M717.79-87.52c0,0-8.62,15.3-21.12,4.76c0,0,12.07,16.12,5.05,24.45c0,0,11.74-12.66,18.58-8.09
			C720.3-66.41,712.06-76.92,717.79-87.52z"/>
		<path d="M437.69-103.13c0,0-6.74,15.58-21.25,7.02c0,0,15.3,17.58,9.96,26.65c0,0,4.23-13.39,17.79-11.51
			C444.18-80.97,433.83-88.3,437.69-103.13z"/>
		<path d="M524.14-45.23c0,0-6.53,19.37-24.67,8.68c0,0,19.09,17.37,12.68,28.25c0,0,11.07-16.7,20.67-12.26
			C532.82-20.56,519.91-31.83,524.14-45.23z"/>
		<path d="M414.86,25.95c0,0-11.97,16.16,2.91,26.16c0,0-21.02-9.95-27.77,5.63c0,0,8.9-16.14,2.7-25.3
			C392.7,32.44,405.39,39.93,414.86,25.95z"/>
		<path d="M466.11,24.85c0,0-6.74,15.58-21.25,7.02c0,0,15.3,17.58,9.96,26.65c0,0,4.23-13.39,17.79-11.51
			C472.6,47.02,462.26,39.69,466.11,24.85z"/>
		<path d="M437.15,31.76c0,0-4.36,13.59-17.92,5.59c0,0,14.42,12.75,9.95,20.32c0,0,7.75-11.59,14.9-8.22
			C444.08,49.46,434.35,41.17,437.15,31.76z"/>
		<path d="M471.14,78.91c0,0-14.07,14.37-0.69,26.31c0,0-19.47-12.73-28.27,1.78c0,0,11.03-14.77,6.13-24.7
			C448.3,82.31,459.86,91.46,471.14,78.91z"/>
		<path d="M437.57,164.48c0,0-6.74,15.58-21.25,7.02c0,0,15.3,17.58,9.96,26.65c0,0,4.23-13.39,17.79-11.51
			C444.06,186.64,433.71,179.31,437.57,164.48z"/>
		<path d="M346.73,122.37c0,0-13.17,15.63-26.14-0.96c0,0,11.41,23.15,1.45,30.93c0,0,16.41-11.49,23.72-3.84
			C345.77,148.5,337.89,133.28,346.73,122.37z"/>
		<path d="M591.07,61.1c0,0-10.48,14.14,2.55,22.89c0,0-18.4-8.71-24.3,4.93c0,0,7.79-14.12,2.36-22.14
			C571.68,66.77,582.79,73.33,591.07,61.1z"/>
		<path d="M619.7,67.29c0,0-6.43,14.21-17.97,7.41c0,0,11.69,14.77,6.77,23.12c0,0,4.24-12.13,15.35-11.2
			C623.85,86.61,615.69,80.67,619.7,67.29z"/>
		<path d="M641.4,40c0,0-8.78,11.81,2.27,19.22c0,0-15.58-7.4-20.49,4.01c0,0,6.51-11.81,1.88-18.56
			C625.06,44.66,634.47,50.21,641.4,40z"/>
		<path d="M645.37-1.17c0,0-7.49,9.63,3.62,16.93c0,0-15.45-7.63-19.28,1.95c0,0,5.33-9.8,0.39-16.04
			C630.1,1.67,639.52,7.22,645.37-1.17z"/>
	</g>
</g>
<g>
	<path class="st0" d="M1715.69-185.27"/>
	<path class="st0" d="M1750.29-178.07"/>
	<path class="st0" d="M1762.69-168.27"/>
	<path class="st0" d="M1737.89-187.87"/>
	<g>
		<path d="M1774.36-163.14c0,0-12.54-0.14-11.05,12.6c0,0-7.37-16.09-15.09-15.18c0,0,10.32,1.21,13.06-8.8
			C1761.28-174.52,1763.17-165.06,1774.36-163.14z"/>
		<path d="M1965,71.12c0,0-19.62,4.42-22.75-13.23c0,0,0.61,23.25-16.37,23.12c0,0,18.36-1.62,24.23,7.76
			C1950.11,88.77,1948.39,74.13,1965,71.12z"/>
		<path d="M1884.53,66.34c0,0-16.98-0.13-15.01,16.6c0,0-9.9-21.1-20.35-19.88c0,0,13.96,1.54,17.72-11.62
			C1866.88,51.45,1869.4,63.87,1884.53,66.34z"/>
		<path d="M1880.48,101.09c0,0-20.36-1.85-17.91,19.06c0,0-8.17-24.48-20.72-23.01c0,0,19.75-3.38,19.57-13.96
			C1861.41,83.18,1866.51,99.55,1880.48,101.09z"/>
		<path d="M1962.28,21.83c0,0-20.17-3.3-19.22,17.73c0,0-6.4-25.01-19.02-24.43c0,0,19.94-1.96,20.51-12.52
			C1944.54,2.61,1948.46,19.29,1962.28,21.83z"/>
		<path d="M1791.79-14.58c0,0-19.62,4.42-22.75-13.23c0,0,0.61,23.25-16.37,23.12c0,0,18.36-1.62,24.23,7.76
			C1776.89,3.07,1775.18-11.57,1791.79-14.58z"/>
		<path d="M1867.91-139.49c0,0-16.98-0.13-15.01,16.6c0,0-9.9-21.1-20.35-19.88c0,0,13.96,1.54,17.72-11.62
			C1850.26-154.38,1852.78-141.96,1867.91-139.49z"/>
		<path d="M1875.86-111.2c0,0-15.49,3.49-17.96-10.45c0,0,0.48,18.35-12.92,18.25c0,0,14.49-1.28,19.13,6.12
			C1864.11-97.27,1862.75-108.82,1875.86-111.2z"/>
		<path d="M1841.22-171.55c0,0-15.07,0.22-13.64,12.41c0,0-8.39-15.23-17.7-14.13c0,0,12.37,0.87,15.95-8.82
			C1825.83-182.09,1827.83-173.07,1841.22-171.55z"/>
		<path d="M1857.32-205.77c0,0-17.47,1.7-12.89,17.39c0,0-9.86-17.56-20.32-14.5c0,0,16.33-5.62,14.91-13.72
			C1839.02-216.61,1845.31-204.82,1857.32-205.77z"/>
		<path d="M1758.41,56.75c0,0-16.98-0.13-15.01,16.6c0,0-9.9-21.1-20.35-19.88c0,0,13.96,1.54,17.72-11.62
			C1740.76,41.86,1743.27,54.28,1758.41,56.75z"/>
		<path d="M1740.38-45.74c0,0-20.36-1.85-17.91,19.06c0,0-8.17-24.48-20.72-23.01c0,0,19.75-3.38,19.57-13.96
			C1721.32-63.64,1726.42-47.28,1740.38-45.74z"/>
		<path d="M1631.11,25.46c0,0-19.62,4.42-22.75-13.23c0,0,0.61,23.25-16.37,23.12c0,0,18.36-1.62,24.23,7.76
			C1616.21,43.11,1614.5,28.47,1631.11,25.46z"/>
		<path d="M1652.82-20.98c0,0-16.98-0.13-15.01,16.6c0,0-9.9-21.1-20.35-19.88c0,0,13.96,1.54,17.72-11.62
			C1635.17-35.87,1637.69-23.45,1652.82-20.98z"/>
		<path d="M1634.8,2.72c0,0-14.19-1.51-12.35,14.13c0,0-5.84-18.34-14.57-17.32c0,0,13.73-2.4,13.54-10.31
			C1621.41-10.77,1625.06,1.49,1634.8,2.72z"/>
		<path d="M1605.41-47.42c0,0-18.84,7.06-24.35-10c0,0,3.78,22.95-13.06,25.14c0,0,17.97-4.12,25.07,4.37
			C1593.07-27.91,1589.37-42.17,1605.41-47.42z"/>
		<path d="M1513.57-51.3c0,0-16.98-0.13-15.01,16.6c0,0-9.9-21.1-20.35-19.88c0,0,13.96,1.54,17.72-11.62
			C1495.93-66.19,1498.44-53.76,1513.57-51.3z"/>
		<path d="M1515.38,48.82c0,0-19.62,5.73-9.68,24.29c0,0-16.57-19.79-27.71-13.83c0,0,17.14-10.37,13.1-20.15
			C1491.09,39.13,1501.82,52.49,1515.38,48.82z"/>
		<path d="M1670.17-149.93c0,0-17.17,3.87-19.91-11.58c0,0,0.53,20.35-14.32,20.23c0,0,16.07-1.42,21.2,6.79
			C1657.14-134.48,1655.64-147.29,1670.17-149.93z"/>
		<path d="M1676.08-178.62c0,0-15.59,0.14-14.04,13.44c0,0-8.78-16.66-18.41-15.53c0,0,12.8,1.03,16.45-9.51
			C1660.08-190.22,1662.21-180.36,1676.08-178.62z"/>
		<path d="M1709.81-187.44c0,0-14.35,3.26-16.66-9.84c0,0,0.47,17.24-11.95,17.13c0,0,13.43-1.18,17.73,5.78
			C1698.94-174.37,1697.66-185.23,1709.81-187.44z"/>
		<path d="M1749.06-174.43c0,0-11.84,2.96-14.02-10.15c0,0,0.74,17.21-9.57,16.85c0,0,11.12-0.91,14.83,6.12
			C1740.3-161.61,1739.03-172.46,1749.06-174.43z"/>
	</g>
</g>
<g>
	<path class="st0" d="M1265.42,26.86"/>
	<path class="st0" d="M1258.02-7.7"/>
	<path class="st0" d="M1261.97-23"/>
	<path class="st0" d="M1254.07,7.6"/>
	<g>
		<path d="M1261.95-35.75c0,0,4.94,11.53,15.99,5.02c0,0-11.74,13.24-7.79,19.94c0,0-3.06-9.93-13.32-8.39
			C1256.82-19.19,1264.72-24.74,1261.95-35.75z"/>
		<path d="M1399.19-304.8c0,0,11.97,16.16-2.91,26.16c0,0,21.02-9.95,27.77,5.63c0,0-8.91-16.14-2.7-25.3
			C1421.35-298.31,1408.65-290.82,1399.19-304.8z"/>
		<path d="M1427.33-229.26c0,0,6.74,15.58,21.25,7.02c0,0-15.3,17.58-9.96,26.65c0,0-4.23-13.39-17.79-11.51
			C1420.84-207.1,1431.19-214.43,1427.33-229.26z"/>
		<path d="M1460.76-239.6c0,0,6.53,19.37,24.67,8.68c0,0-19.09,17.37-12.68,28.25c0,0-11.07-16.7-20.67-12.26
			C1452.08-214.93,1464.99-226.2,1460.76-239.6z"/>
		<path d="M1355.2-282.39c0,0,5.13,19.79,23.99,10.42c0,0-20.28,15.96-14.66,27.28c0,0-9.85-17.45-19.74-13.7
			C1344.78-258.4,1358.46-268.73,1355.2-282.39z"/>
		<path d="M1390.8-111.73c0,0,11.97,16.16-2.91,26.16c0,0,21.02-9.95,27.77,5.63c0,0-8.9-16.14-2.7-25.3
			C1412.96-105.24,1400.26-97.75,1390.8-111.73z"/>
		<path d="M1245.78-130.88c0,0,6.74,15.58,21.25,7.02c0,0-15.3,17.58-9.96,26.65c0,0-4.23-13.39-17.79-11.51
			C1239.29-108.72,1249.64-116.04,1245.78-130.88z"/>
		<path d="M1268.44-149.59c0,0,9.45,12.76-2.3,20.65c0,0,16.59-7.85,21.92,4.44c0,0-7.03-12.74-2.13-19.97
			C1285.94-144.46,1275.91-138.55,1268.44-149.59z"/>
		<path d="M1227.24-93.51c0,0,6.3,13.7,16.86,7.47c0,0-10.54,13.83-5.78,21.9c0,0-4.21-11.66-14.51-11.03
			C1223.81-75.17,1231.26-80.65,1227.24-93.51z"/>
		<path d="M1189.43-94.41c0,0,8.62,15.3,21.12,4.76c0,0-12.07,16.12-5.05,24.45c0,0-11.74-12.66-18.58-8.09
			C1186.91-73.29,1195.16-83.8,1189.43-94.41z"/>
		<path d="M1469.53-110.02c0,0,6.74,15.58,21.25,7.02c0,0-15.3,17.58-9.96,26.65c0,0-4.23-13.39-17.79-11.51
			C1463.04-87.86,1473.39-95.18,1469.53-110.02z"/>
		<path d="M1383.07-52.11c0,0,6.53,19.37,24.67,8.68c0,0-19.09,17.37-12.68,28.25c0,0-11.07-16.7-20.67-12.26
			C1374.4-27.44,1387.3-38.72,1383.07-52.11z"/>
		<path d="M1492.36,19.06c0,0,11.97,16.16-2.91,26.16c0,0,21.02-9.95,27.77,5.63c0,0-8.9-16.14-2.7-25.3
			C1514.52,25.55,1501.82,33.04,1492.36,19.06z"/>
		<path d="M1441.1,17.97c0,0,6.74,15.58,21.25,7.02c0,0-15.3,17.58-9.96,26.65c0,0-4.23-13.39-17.79-11.51
			C1434.61,40.13,1444.96,32.81,1441.1,17.97z"/>
		<path d="M1470.07,24.88c0,0,4.36,13.59,17.92,5.59c0,0-14.42,12.75-9.95,20.32c0,0-7.75-11.59-14.9-8.22
			C1463.13,42.57,1472.87,34.28,1470.07,24.88z"/>
		<path d="M1436.08,72.02c0,0,14.07,14.37,0.69,26.31c0,0,19.47-12.73,28.27,1.78c0,0-11.03-14.77-6.13-24.7
			C1458.92,75.42,1447.36,84.58,1436.08,72.02z"/>
		<path d="M1469.65,157.59c0,0,6.74,15.58,21.25,7.02c0,0-15.3,17.58-9.96,26.65c0,0-4.23-13.39-17.79-11.51
			C1463.16,179.75,1473.51,172.43,1469.65,157.59z"/>
		<path d="M1560.49,115.48c0,0,13.17,15.63,26.14-0.96c0,0-11.41,23.15-1.45,30.93c0,0-16.41-11.49-23.72-3.84
			C1561.45,141.62,1569.33,126.4,1560.49,115.48z"/>
		<path d="M1316.14,54.21c0,0,10.48,14.14-2.55,22.89c0,0,18.4-8.71,24.3,4.93c0,0-7.79-14.12-2.36-22.14
			C1335.53,59.89,1324.42,66.44,1316.14,54.21z"/>
		<path d="M1287.52,60.4c0,0,6.43,14.21,17.97,7.41c0,0-11.69,14.77-6.77,23.12c0,0-4.24-12.13-15.35-11.2
			C1283.36,79.72,1291.52,73.79,1287.52,60.4z"/>
		<path d="M1265.81,33.11c0,0,8.78,11.81-2.27,19.22c0,0,15.58-7.4,20.49,4.01c0,0-6.51-11.81-1.88-18.56
			C1282.16,37.78,1272.74,43.33,1265.81,33.11z"/>
		<path d="M1261.85-8.05c0,0,7.49,9.63-3.62,16.93c0,0,15.45-7.63,19.28,1.95c0,0-5.33-9.8-0.39-16.04
			C1277.12-5.22,1267.7,0.33,1261.85-8.05z"/>
	</g>
</g>
</svg>
