<svg id="Group_21" data-name="Group 21" xmlns="http://www.w3.org/2000/svg" xmlns:xlink="http://www.w3.org/1999/xlink" width="26.994" height="28.4" viewBox="0 0 26.994 28.4">
  <defs>
    <clipPath id="clip-path">
      <rect id="Rectangle_38" data-name="Rectangle 38" width="26.994" height="28.4" fill="none"/>
    </clipPath>
  </defs>
  <g id="Group_20" data-name="Group 20" clip-path="url(#clip-path)">
    <path id="Path_27" data-name="Path 27" d="M24.827,302.976H4.312c-.7,0-1.393,0-2.09,0H2.175a.751.751,0,0,0-.109,0c.144-.022.159.029.074.009-.033-.008-.066-.014-.1-.024s-.169-.074-.04-.007-.028-.018-.054-.033-.055-.038-.084-.053c-.1-.049.153.147.037.028-.033-.034-.094-.122-.136-.141.1.045.093.139.046.054-.02-.036-.041-.072-.063-.107s-.072-.132-.009-.011,0-.028-.013-.064A.573.573,0,0,0,1.7,302.5c.012.021.012.214.015.072,0-.018,0-.036,0-.054s0-.014,0-.021c0-.305,0-.611,0-.917v-9.713c0-.832-.014-1.665,0-2.5a.591.591,0,0,0,0-.1c.038.057-.037.2,0,.049.007-.033.018-.065.026-.1.027-.114.074-.052-.025.04a.787.787,0,0,0,.1-.173c.066-.119-.026.046-.046.054.032-.013.072-.081.1-.108s.143-.124.026-.029-.017.013.014,0l.108-.061c.093-.054.013.045-.067.027.043.01.148-.042.194-.055.17-.045-.164,0-.048.008-.032,0,.171,0,.079,0H24.824c.088,0,.191.044-.017-.014a1.531,1.531,0,0,0,.221.056c.1.011-.149-.088-.066-.029a1.169,1.169,0,0,0,.13.072c.107.056.02.081-.033-.033a.474.474,0,0,0,.073.065c.024.023.045.048.068.071.1.1-.041-.038-.042-.058a.851.851,0,0,0,.113.192c.061.085-.059-.2-.021-.042.009.041.024.081.033.122.033.15-.041.008,0-.049a.594.594,0,0,0,0,.1s0,0,0,0,0,.017,0,.026c0,.1,0,.209,0,.313v12.638c0,.057,0,.114,0,.171a.566.566,0,0,0,0,.1c0-.016.043-.214.009-.074-.008.033-.015.066-.024.1s-.074.169-.007.04-.056.09-.072.117c-.047.085-.051-.009.046-.054-.017.008-.05.057-.066.073s-.048.045-.071.068c-.116.12.133-.077.037-.028a.973.973,0,0,0-.194.11c.015-.019.2-.063.064-.032-.033.008-.064.02-.1.027a.549.549,0,0,0-.1.02l.125-.018q-.052,0-.105,0a.855.855,0,1,0,0,1.71,2.21,2.21,0,0,0,2.056-1.487,2.317,2.317,0,0,0,.111-.783V289.724c0-.109,0-.218,0-.327a2.24,2.24,0,0,0-.6-1.525,2.315,2.315,0,0,0-1.763-.67H2.275A2.225,2.225,0,0,0,.1,288.737a3.9,3.9,0,0,0-.094,1.2v9.6c0,.987-.007,1.974,0,2.961a2.2,2.2,0,0,0,2.182,2.191c.2,0,.39,0,.585,0H24.827a.855.855,0,1,0,0-1.71" transform="translate(0 -276.287)" fill="#fff"/>
    <path id="Path_28" data-name="Path 28" d="M365.129,409.078l-2-.155a1.365,1.365,0,0,0-1.139.353,1.955,1.955,0,0,0-.267,1.89c.072.39.158.777.252,1.162a.863.863,0,0,0,1.052.6.873.873,0,0,0,.6-1.052q-.106-.434-.195-.871c-.044-.214-.081-.429-.117-.645-.019-.118.025.246.009.056,0-.039-.008-.078-.01-.117s0-.065,0-.1c-.007-.047.072-.25-.02.138.034-.144-.075.142-.029.06s-.113.123-.133.142c-.1.09-.057.04-.017.018s-.24.071-.078.035-.22,0-.15.019a1.346,1.346,0,0,0,.273.021l1.145.089.833.065a.859.859,0,0,0,.855-.855.876.876,0,0,0-.855-.855" transform="translate(-347.864 -393.375)" fill="#ac0c60"/>
    <path id="Path_29" data-name="Path 29" d="M235.648,418.323a3.889,3.889,0,0,0-1.9,1.737,4.47,4.47,0,0,0-.34,3.1,3.9,3.9,0,0,0,2.944,2.671,6.749,6.749,0,0,0,1.2.189c.176.013-.078-.015-.147-.024a1.994,1.994,0,0,0,.293.031,4.673,4.673,0,0,0,.595-.066,4.617,4.617,0,0,0,3.163-1.819,3.807,3.807,0,0,0,.586-2.565,3.973,3.973,0,0,0-.532-1.65,4.181,4.181,0,0,0-1.064-1.138,4.252,4.252,0,0,0-.475-.314.855.855,0,0,0-.863,1.477c.153.087.291.193.44.286-.24-.151.012.015.072.069q.112.1.214.214.04.044.078.089c.062.074.06.151-.015-.023a2.558,2.558,0,0,0,.162.245c.052.088.1.178.141.27.081.167-.064-.19-.006-.01.019.06.042.119.06.179q.044.148.074.3l.01.057q.022.141,0-.051a.613.613,0,0,1,.017.183c.016.231-.015.453-.016.682,0-.006.037-.229.012-.094-.008.043-.015.086-.024.129q-.026.124-.062.245c-.023.077-.055.152-.079.228.091-.29,0-.006-.045.075q-.044.082-.095.161c-.05.079-.22.244-.014.035-.108.109-.2.232-.312.336-.043.039-.088.075-.131.113-.109.1.184-.132.065-.05l-.083.06a3.57,3.57,0,0,1-.371.225q-.072.038-.146.073c-.075.036-.309.117,0,0-.125.045-.247.1-.373.136a5.181,5.181,0,0,1-.623.156c-.078.015-.157.026-.235.038.386-.062.094-.013-.007,0l-.122.007c-.013,0-.027,0-.04,0h-.012l.22.03q-.115-.017-.23-.031c-.073-.007-.147-.011-.22-.018-.1-.009-.361-.053.022.006-.092-.014-.184-.028-.276-.045a5.11,5.11,0,0,1-.612-.154c-.1-.033-.2-.072-.3-.11-.129-.048.217.1.092.039l-.084-.038q-.1-.046-.2-.1a3.327,3.327,0,0,1-.3-.183l-.08-.056c-.117-.079.177.147.069.054-.059-.051-.118-.1-.175-.152-.091-.086-.168-.183-.252-.275.207.227.038.047-.009-.026s-.088-.144-.126-.219c-.017-.033-.031-.067-.048-.1-.065-.125.088.228.014.029q-.041-.111-.073-.225c-.026-.093-.047-.188-.063-.284-.013-.073,0-.208.005.055,0-.06-.013-.121-.016-.181a4.711,4.711,0,0,1,.016-.689c.017-.211-.039.19,0-.012.016-.075.028-.151.046-.226a3.242,3.242,0,0,1,.11-.365l.019-.049q.051-.128-.027.062a.754.754,0,0,0,.065-.136,2.851,2.851,0,0,1,.172-.292c.026-.038.059-.075.081-.115-.119.216-.043.056.011-.005a2.94,2.94,0,0,1,.219-.223c.062-.057.3-.215.061-.06.083-.053.16-.115.244-.167a3.9,3.9,0,0,1,.5-.261.858.858,0,0,0,.307-1.17.881.881,0,0,0-1.17-.307" transform="translate(-224.401 -402.329)" fill="#ac0c60"/>
    <path id="Path_30" data-name="Path 30" d="M161.3,12.142a8.3,8.3,0,0,0,.862-5.106,7.778,7.778,0,0,0-1.378-3.671A8.486,8.486,0,0,0,155.84.241,8.268,8.268,0,0,0,154.124,0a7.486,7.486,0,0,0-1.149.109,8.024,8.024,0,0,0-4.547,2.17,7.849,7.849,0,0,0-1.907,3.227,11.187,11.187,0,0,0-.443,2.369,8.339,8.339,0,0,0,.215,2.868,7.117,7.117,0,0,0,.455,1.211.859.859,0,0,0,1.17.307.878.878,0,0,0,.307-1.17c-.022-.047-.043-.094-.065-.141-.061-.131.023.045.024.06a1.312,1.312,0,0,0-.1-.248,5.894,5.894,0,0,1-.175-.582c-.047-.19-.081-.381-.113-.573-.026-.156,0,.029.006.047a.89.89,0,0,1-.021-.184q-.017-.174-.026-.349a9.087,9.087,0,0,1,.039-1.358c.009-.093.02-.186.031-.28.022-.19-.024.161-.005.036.007-.045.013-.09.02-.134q.044-.286.1-.568a9.039,9.039,0,0,1,.252-.943q.071-.217.154-.43c.026-.067.141-.3.014-.041.037-.077.07-.158.107-.235a6.923,6.923,0,0,1,.415-.752q.1-.155.207-.305c.024-.033.164-.217.057-.08s.042-.051.072-.088a6.265,6.265,0,0,1,.513-.549q.125-.118.255-.23l.13-.108.052-.042c.11-.09-.192.143-.055.043a7.031,7.031,0,0,1,1.112-.675c.084-.041.169-.078.254-.116.145-.066-.237.1-.045.019l.144-.057q.265-.1.537-.184a8.346,8.346,0,0,1,.941-.225l.2-.034.095-.014.037-.005c.146-.022-.252.032-.138.018s.21-.025.315-.035c.133-.013.267-.024.4-.032a2.946,2.946,0,0,1,.409.01c.108.008.216.021.324.033.176.021-.224-.032-.116-.016l.1.014q.113.017.226.037a9.364,9.364,0,0,1,.974.229q.281.082.557.182.138.05.274.1c.046.018.095.034.138.057.013.007-.229-.1-.121-.051l.084.037a7.826,7.826,0,0,1,1.172.644q.132.088.259.182l.068.05c.112.082-.159-.126-.079-.061.049.039.1.078.146.118a6.564,6.564,0,0,1,.537.5q.124.129.242.265.059.069.117.139l.046.057c.094.114-.139-.187-.032-.042a6.871,6.871,0,0,1,.427.65q.1.171.185.349.045.09.086.182l.033.074c.061.133-.089-.22-.006-.014a7.042,7.042,0,0,1,.272.817c.085.317.135.637.192.959-.051-.288,0,0,.005.067s.016.168.023.252q.021.275.026.55c0,.211,0,.422-.008.632q-.008.165-.022.33-.009.1-.019.192c-.007.065.009.231,0,.023a2.329,2.329,0,0,1-.113.6q-.072.307-.173.606-.044.13-.094.259c-.013.033-.029.067-.04.1.078-.229.024-.059,0-.008-.072.158-.151.313-.236.465a.855.855,0,0,0,1.477.863" transform="translate(-140.491 0.001)" fill="#fff"/>
  </g>
</svg>
