<?xml version="1.0" encoding="utf-8"?>
<!-- Generator: Adobe Illustrator 26.3.1, SVG Export Plug-In . SVG Version: 6.00 Build 0)  -->
<svg version="1.1" xmlns="http://www.w3.org/2000/svg" xmlns:xlink="http://www.w3.org/1999/xlink" x="0px" y="0px"
	 viewBox="0 0 1920 1080" style="enable-background:new 0 0 1920 1080;" xml:space="preserve">
<style type="text/css">
	.st0{fill:#FFFFFF;}
	.st1{fill:none;stroke:#28295D;stroke-width:0.5;stroke-miterlimit:10;}
	.st2{fill:#525251;}
	.st3{fill:#3C3C3B;}
	.st4{fill:#706F6F;}
	.st5{fill:#858584;}
	.st6{fill:none;stroke:#000000;stroke-miterlimit:10;}
</style>
<g id="Vrstva_3">
</g>
<g id="Vrstva_2">
	<ellipse class="st0" cx="39.89" cy="952.91" rx="113.89" ry="134.21"/>
	<ellipse class="st0" cx="344.21" cy="1008.5" rx="147.57" ry="151.5"/>
	<ellipse class="st0" cx="432.43" cy="966.5" rx="147.57" ry="151.5"/>
	<ellipse class="st0" cx="160.59" cy="952.53" rx="147.57" ry="151.5"/>
	<ellipse class="st0" cx="603.75" cy="1022.51" rx="147.57" ry="151.5"/>
	<ellipse class="st0" cx="787.89" cy="1050.53" rx="147.57" ry="151.5"/>
	<ellipse class="st0" cx="940.75" cy="970.51" rx="147.57" ry="151.5"/>
	<ellipse class="st0" cx="1122.04" cy="1011.53" rx="147.57" ry="151.5"/>
	<ellipse class="st0" cx="1308.12" cy="983.53" rx="147.57" ry="151.5"/>
	<ellipse class="st0" cx="1884.01" cy="954.51" rx="147.57" ry="151.5"/>
	<ellipse class="st0" cx="1523.01" cy="1032.51" rx="147.57" ry="151.5"/>
	<ellipse class="st0" cx="1728.34" cy="999.53" rx="147.57" ry="151.5"/>
</g>
<g id="Vrstva_1">
	<g>
		<path class="st1" d="M1167.99,411.64"/>
		<path class="st1" d="M1152.51,365.18"/>
		<path class="st1" d="M1137.02,349.69"/>
		<path class="st1" d="M1167.99,380.67"/>
		<g>
			<path class="st2" d="M1128.07,334.46c0,0,2.22,17.24-15.55,17.24c0,0,23.33,7.54,23.33,18.32c0,0-3.33-14.01,10-19.4
				C1145.85,350.62,1132.52,349.55,1128.07,334.46z"/>
			<path d="M774.87,109.88c0,0-2.92,27.72,21.89,29.18c0,0-32.1,2.92-29.18,26.26c0,0-0.73-25.53-14.59-32.1
				C752.99,133.22,773.41,133.22,774.87,109.88z"/>
			<path d="M794.44,219.86c0,0,2.92,23.35-20.43,23.35c0,0,30.64,10.21,30.64,24.8c0,0-4.38-18.97,13.13-26.26
				C817.78,241.75,800.27,240.29,794.44,219.86z"/>
			<path class="st3" d="M747.27,231.05c0,0,5.84,27.72-23.35,27.72c0,0,35.02,7.3,35.02,24.8c0,0,1.46-27.72,16.05-29.18
				C774.99,254.4,751.64,250.02,747.27,231.05z"/>
			<path d="M843.15,105.67c0,0,7.8,27.24-21.31,29.32c0,0,35.45,4.78,36.7,22.24c0,0-0.52-27.76,13.93-30.25
				C872.47,126.97,848.88,124.27,843.15,105.67z"/>
			<path class="st2" d="M920.78,334.45c0,0-2.92,27.72,21.89,29.18c0,0-32.1,2.92-29.18,26.26c0,0-0.73-25.53-14.59-32.1
				C898.9,357.8,919.32,357.8,920.78,334.45z"/>
			<path class="st3" d="M1080.42,209.52c0,0,2.92,23.35-20.43,23.35c0,0,30.64,10.21,30.64,24.8c0,0-4.38-18.97,13.13-26.26
				C1103.76,231.41,1086.26,229.95,1080.42,209.52z"/>
			<path class="st3" d="M1040.2,203.14c0,0-2.3,21.88,17.28,23.03c0,0-25.34,2.3-23.03,20.73c0,0-0.58-20.16-11.52-25.34
				C1022.92,221.57,1039.04,221.57,1040.2,203.14z"/>
			<path class="st3" d="M1128.85,241.08c0,0,2.12,20.78-14.87,20.78c0,0,22.31,9.09,22.31,22.08c0,0-3.19-16.88,9.56-23.38
				C1145.85,260.56,1133.1,259.26,1128.85,241.08z"/>
			<path d="M1173.36,213.39c0,0,0.48,24.33-21.86,20.55c0,0,25.76,10.74,23.24,25.63c0,0,5.11-23.38,16.48-22.73
				C1191.22,236.83,1173.98,230.08,1173.36,213.39z"/>
			<path class="st4" d="M828,391.91c0,0,2.92,23.35-20.43,23.35c0,0,30.64,10.21,30.64,24.8c0,0-4.38-18.97,13.13-26.26
				C851.34,413.79,833.83,412.34,828,391.91z"/>
			<path class="st4" d="M971.97,400.18c0,0,5.84,27.72-23.35,27.72c0,0,35.02,7.3,35.02,24.8c0,0,1.46-27.72,16.05-29.18
				C999.69,423.53,976.34,419.15,971.97,400.18z"/>
			<path class="st5" d="M891.6,562.07c0,0-2.92,27.72,21.89,29.18c0,0-32.1,2.92-29.18,26.26c0,0-0.73-25.53-14.59-32.1
				C869.71,585.41,890.14,585.41,891.6,562.07z"/>
			<path class="st5" d="M952.02,524.69c0,0,2.92,23.35-20.43,23.35c0,0,30.64,10.21,30.64,24.8c0,0-4.38-18.97,13.13-26.26
				C975.36,546.57,957.86,545.11,952.02,524.69z"/>
			<path class="st5" d="M922.3,553.32c0,0,4.36,19.29-17.46,19.29c0,0,26.19,5.08,26.19,17.26c0,0,1.09-19.29,12-20.3
				C943.04,569.56,925.58,566.52,922.3,553.32z"/>
			<path class="st5" d="M996.07,585.68c0,0-6.68,27.06,17.69,31.9c0,0-32.2-1.5-32.5,22.03c0,0,2.77-25.39-10.07-33.79
				C971.2,605.81,991.43,608.6,996.07,585.68z"/>
			<path class="st5" d="M1016.22,711.45c0,0,2.92,23.35-20.43,23.35c0,0,30.64,10.21,30.64,24.8c0,0-4.38-18.97,13.13-26.26
				C1039.56,733.34,1022.06,731.88,1016.22,711.45z"/>
			<path class="st5" d="M878.14,725.12c0,0-4.72,27.93-31.87,17.25c0,0,29.92,19.61,23.5,35.9c0,0,11.51-25.26,25.62-21.28
				C895.39,757,875.27,744.37,878.14,725.12z"/>
			<path class="st4" d="M1126.7,479.99c0,0-2.55,24.26,19.15,25.54c0,0-28.09,2.55-25.54,22.98c0,0-0.64-22.34-12.77-28.09
				C1107.55,500.42,1125.42,500.42,1126.7,479.99z"/>
			<path class="st4" d="M1165.23,467.24c0,0,2.32,21.49-16.24,21.49c0,0,24.35,9.4,24.35,22.83c0,0-3.48-17.46,10.44-24.17
				C1183.79,487.38,1169.87,486.04,1165.23,467.24z"/>
			<path class="st4" d="M1171.93,419.39c0,0-2.16,20.27,16.23,21.34c0,0-23.81,2.13-21.64,19.21c0,0-0.54-18.67-10.82-23.48
				C1155.7,436.46,1170.85,436.46,1171.93,419.39z"/>
			<path class="st2" d="M1147.69,367.45c0,0-2.16,16.78,16.23,17.66c0,0-23.81,1.77-21.64,15.89c0,0-0.54-15.45-10.82-19.42
				C1131.45,381.58,1146.61,381.58,1147.69,367.45z"/>
		</g>
	</g>
	<line class="st0" x1="958" y1="-84" x2="958" y2="996"/>
	<line class="st6" x1="0" y1="540" x2="1936" y2="540"/>
	<g>
		<path class="st1" d="M168.45-125.51"/>
		<path class="st1" d="M132.48-118.03"/>
		<path class="st1" d="M119.58-107.84"/>
		<path class="st1" d="M145.37-128.22"/>
		<g>
			<path d="M107.45-102.51c0,0,13.04-0.15,11.49,13.1c0,0,7.66-16.72,15.69-15.78c0,0-10.73,1.26-13.58-9.14
				C121.05-114.34,119.08-104.5,107.45-102.51z"/>
			<path d="M-90.73,141.02c0,0,20.4,4.6,23.65-13.76c0,0-0.63,24.17,17.02,24.04c0,0-19.09-1.69-25.19,8.07
				C-75.25,159.37-73.46,144.15-90.73,141.02z"/>
			<path d="M-7.08,136.05c0,0,17.65-0.13,15.61,17.26c0,0,10.29-21.94,21.16-20.66c0,0-14.51,1.6-18.42-12.08
				C11.27,120.57,8.65,133.49-7.08,136.05z"/>
			<path d="M-2.86,172.18c0,0,21.16-1.93,18.62,19.82c0,0,8.49-25.45,21.54-23.92c0,0-20.53-3.51-20.34-14.51
				C16.95,153.56,11.65,170.57-2.86,172.18z"/>
			<path d="M-87.9,89.78c0,0,20.97-3.43,19.98,18.44c0,0,6.66-25.99,19.78-25.4c0,0-20.73-2.03-21.32-13.02
				C-69.46,69.8-73.54,87.14-87.9,89.78z"/>
			<path d="M89.34,51.93c0,0,20.4,4.6,23.65-13.76c0,0-0.63,24.17,17.02,24.04c0,0-19.09-1.69-25.19,8.07
				C104.82,70.28,106.6,55.06,89.34,51.93z"/>
			<path d="M10.2-77.92c0,0,17.65-0.13,15.61,17.26c0,0,10.29-21.94,21.16-20.66c0,0-14.51,1.6-18.42-12.08
				C28.55-93.4,25.93-80.49,10.2-77.92z"/>
			<path d="M1.94-48.51c0,0,16.1,3.63,18.67-10.86c0,0-0.5,19.08,13.43,18.97c0,0-15.07-1.33-19.88,6.37
				C14.16-34.03,15.57-46.04,1.94-48.51z"/>
			<path d="M37.95-111.25c0,0,15.67,0.23,14.18,12.9c0,0,8.72-15.83,18.4-14.69c0,0-12.86,0.9-16.58-9.17
				C53.95-122.21,51.86-112.83,37.95-111.25z"/>
			<path d="M21.21-146.83c0,0,18.17,1.77,13.4,18.08c0,0,10.25-18.25,21.12-15.07c0,0-16.97-5.85-15.5-14.27
				C40.23-158.09,33.7-145.83,21.21-146.83z"/>
			<path d="M124.04,126.08c0,0,17.65-0.13,15.61,17.26c0,0,10.29-21.94,21.16-20.66c0,0-14.51,1.6-18.42-12.08
				C142.39,110.6,139.77,123.52,124.04,126.08z"/>
			<path d="M142.78,19.54c0,0,21.16-1.93,18.62,19.82c0,0,8.49-25.45,21.54-23.92c0,0-20.53-3.51-20.34-14.51
				C162.6,0.92,157.3,17.94,142.78,19.54z"/>
			<path d="M256.38,93.56c0,0,20.4,4.6,23.65-13.76c0,0-0.63,24.17,17.02,24.04c0,0-19.09-1.69-25.19,8.07
				C271.86,111.9,273.64,96.69,256.38,93.56z"/>
			<path d="M233.8,45.28c0,0,17.65-0.13,15.61,17.26c0,0,10.29-21.94,21.16-20.66c0,0-14.51,1.6-18.42-12.08
				C252.15,29.8,249.53,42.71,233.8,45.28z"/>
			<path d="M252.54,69.92c0,0,14.75-1.57,12.84,14.69c0,0,6.07-19.07,15.14-18c0,0-14.27-2.5-14.08-10.72
				C266.45,55.89,262.66,68.63,252.54,69.92z"/>
			<path d="M283.09,17.79c0,0,19.58,7.34,25.31-10.4c0,0-3.93,23.86,13.57,26.14c0,0-18.68-4.28-26.06,4.55
				C295.92,38.08,299.77,23.25,283.09,17.79z"/>
			<path d="M378.56,13.76c0,0,17.65-0.13,15.61,17.26c0,0,10.29-21.94,21.16-20.66c0,0-14.51,1.6-18.42-12.08
				C396.91-1.72,394.29,11.2,378.56,13.76z"/>
			<path d="M376.68,117.83c0,0,20.4,5.96,10.07,25.26c0,0,17.22-20.58,28.8-14.38c0,0-17.82-10.78-13.62-20.95
				C401.94,107.77,390.78,121.66,376.68,117.83z"/>
			<path d="M215.76-88.77c0,0,17.85,4.02,20.7-12.04c0,0-0.55,21.15,14.89,21.03c0,0-16.7-1.48-22.04,7.06
				C229.31-72.72,230.87-86.04,215.76-88.77z"/>
			<path d="M209.63-118.6c0,0,16.21,0.15,14.59,13.97c0,0,9.13-17.32,19.14-16.15c0,0-13.31,1.07-17.1-9.89
				C226.26-130.66,224.04-120.41,209.63-118.6z"/>
			<path d="M174.56-127.77c0,0,14.92,3.38,17.32-10.23c0,0-0.49,17.93,12.42,17.8c0,0-13.96-1.23-18.44,6.01
				C185.86-114.18,187.19-125.47,174.56-127.77z"/>
			<path d="M133.75-114.24c0,0,12.31,3.08,14.58-10.55c0,0-0.76,17.89,9.95,17.51c0,0-11.56-0.95-15.42,6.37
				C142.86-100.91,144.18-112.2,133.75-114.24z"/>
		</g>
	</g>
	<g>
		<path class="st1" d="M636.53,95.01"/>
		<path class="st1" d="M644.22,59.08"/>
		<path class="st1" d="M640.12,43.17"/>
		<path class="st1" d="M648.33,74.99"/>
		<g>
			<path d="M640.14,29.92c0,0-5.13,11.99-16.62,5.22c0,0,12.2,13.76,8.1,20.73c0,0,3.18-10.32,13.85-8.73
				C645.47,47.14,637.27,41.37,640.14,29.92z"/>
			<path d="M497.47-249.77c0,0-12.45,16.8,3.02,27.2c0,0-21.85-10.34-28.86,5.85c0,0,9.26-16.78,2.8-26.3
				C474.44-243.03,487.64-235.24,497.47-249.77z"/>
			<path d="M468.21-171.25c0,0-7.01,16.2-22.09,7.3c0,0,15.91,18.27,10.35,27.7c0,0,4.4-13.92,18.49-11.97
				C474.96-148.21,464.2-155.83,468.21-171.25z"/>
			<path d="M433.47-181.99c0,0-6.79,20.14-25.65,9.02c0,0,19.85,18.06,13.18,29.37c0,0,11.51-17.36,21.49-12.74
				C442.48-156.34,429.07-168.07,433.47-181.99z"/>
			<path d="M543.2-226.48c0,0-5.34,20.57-24.94,10.83c0,0,21.09,16.59,15.24,28.36c0,0,10.24-18.14,20.53-14.24
				C554.03-201.54,539.81-212.27,543.2-226.48z"/>
			<path d="M506.19-49.06c0,0-12.45,16.8,3.02,27.2c0,0-21.85-10.34-28.86,5.85c0,0,9.26-16.78,2.8-26.3
				C483.16-42.31,496.36-34.53,506.19-49.06z"/>
			<path d="M656.95-68.97c0,0-7.01,16.2-22.09,7.3c0,0,15.91,18.27,10.35,27.7c0,0,4.4-13.92,18.49-11.97
				C663.7-45.93,652.94-53.54,656.95-68.97z"/>
			<path d="M633.39-88.42c0,0-9.83,13.26,2.39,21.47c0,0-17.25-8.17-22.78,4.62c0,0,7.31-13.24,2.21-20.76
				C615.2-83.09,625.62-76.95,633.39-88.42z"/>
			<path d="M676.22-30.12c0,0-6.54,14.24-17.53,7.76c0,0,10.95,14.38,6,22.77c0,0,4.37-12.12,15.09-11.46
				C679.79-11.06,672.04-16.76,676.22-30.12z"/>
			<path d="M715.54-31.06c0,0-8.96,15.9-21.95,4.95c0,0,12.55,16.75,5.25,25.41c0,0,12.21-13.16,19.31-8.41
				C718.15-9.11,709.58-20.03,715.54-31.06z"/>
			<path d="M424.34-47.29c0,0-7.01,16.2-22.09,7.3c0,0,15.91,18.27,10.35,27.7c0,0,4.4-13.92,18.49-11.97
				C431.09-24.25,420.33-31.86,424.34-47.29z"/>
			<path d="M514.22,12.91c0,0-6.79,20.14-25.65,9.02c0,0,19.85,18.06,13.18,29.37c0,0,11.51-17.36,21.49-12.74
				C523.24,38.56,509.83,26.84,514.22,12.91z"/>
			<path d="M400.61,86.91c0,0-12.45,16.8,3.02,27.2c0,0-21.85-10.34-28.86,5.85c0,0,9.26-16.78,2.8-26.3
				C377.57,93.65,390.77,101.44,400.61,86.91z"/>
			<path d="M453.9,85.77c0,0-7.01,16.2-22.09,7.3c0,0,15.91,18.27,10.35,27.7c0,0,4.4-13.92,18.49-11.97
				C460.65,108.81,449.89,101.19,453.9,85.77z"/>
			<path d="M423.79,92.95c0,0-4.53,14.12-18.63,5.81c0,0,14.99,13.26,10.35,21.13c0,0,8.05-12.05,15.49-8.54
				C430.99,111.34,420.87,102.73,423.79,92.95z"/>
			<path d="M459.12,141.96c0,0-14.63,14.94-0.72,27.35c0,0-20.24-13.23-29.39,1.85c0,0,11.46-15.36,6.37-25.67
				C435.38,145.5,447.39,155.01,459.12,141.96z"/>
			<path d="M424.23,230.91c0,0-7.01,16.2-22.09,7.3c0,0,15.91,18.27,10.35,27.7c0,0,4.4-13.92,18.49-11.97
				C430.97,253.95,420.21,246.34,424.23,230.91z"/>
			<path d="M329.79,187.14c0,0-13.69,16.25-27.17-1c0,0,11.86,24.07,1.51,32.16c0,0,17.06-11.94,24.66-3.99
				C328.79,214.31,320.6,198.49,329.79,187.14z"/>
			<path d="M583.8,123.44c0,0-10.89,14.7,2.65,23.8c0,0-19.12-9.05-25.26,5.12c0,0,8.1-14.68,2.45-23.02
				C563.64,129.35,575.19,136.16,583.8,123.44z"/>
			<path d="M613.56,129.88c0,0-6.69,14.77-18.68,7.7c0,0,12.15,15.35,7.04,24.03c0,0,4.4-12.61,15.95-11.64
				C617.88,149.97,609.4,143.8,613.56,129.88z"/>
			<path d="M636.12,101.51c0,0-9.12,12.28,2.36,19.98c0,0-16.2-7.69-21.3,4.16c0,0,6.77-12.27,1.95-19.29
				C619.13,106.36,628.92,112.13,636.12,101.51z"/>
			<path d="M640.24,58.72c0,0-7.79,10.02,3.76,17.6c0,0-16.06-7.93-20.04,2.02c0,0,5.54-10.19,0.41-16.68
				C624.37,61.66,634.16,67.43,640.24,58.72z"/>
		</g>
	</g>
	<g>
		<path class="st1" d="M1752.92-132.67"/>
		<path class="st1" d="M1788.89-125.19"/>
		<path class="st1" d="M1801.78-115"/>
		<path class="st1" d="M1776-135.37"/>
		<g>
			<path d="M1813.92-109.67c0,0-13.04-0.15-11.49,13.1c0,0-7.66-16.72-15.69-15.78c0,0,10.73,1.26,13.58-9.14
				C1800.32-121.5,1802.29-111.66,1813.92-109.67z"/>
			<path d="M2012.1,133.86c0,0-20.4,4.6-23.65-13.76c0,0,0.63,24.17-17.02,24.04c0,0,19.09-1.69,25.19,8.07
				C1996.62,152.21,1994.83,136.99,2012.1,133.86z"/>
			<path d="M1928.45,128.9c0,0-17.65-0.13-15.61,17.26c0,0-10.29-21.94-21.16-20.66c0,0,14.51,1.6,18.42-12.08
				C1910.1,113.41,1912.72,126.33,1928.45,128.9z"/>
			<path d="M1924.23,165.02c0,0-21.16-1.93-18.62,19.82c0,0-8.49-25.45-21.54-23.92c0,0,20.53-3.51,20.34-14.51
				C1904.41,146.4,1909.71,163.42,1924.23,165.02z"/>
			<path d="M2009.27,82.62c0,0-20.97-3.43-19.98,18.44c0,0-6.66-25.99-19.78-25.4c0,0,20.73-2.03,21.32-13.02
				C1990.83,62.64,1994.91,79.99,2009.27,82.62z"/>
			<path d="M1832.03,44.77c0,0-20.4,4.6-23.65-13.76c0,0,0.63,24.17-17.02,24.04c0,0,19.09-1.69,25.19,8.07
				C1816.55,63.12,1814.76,47.9,1832.03,44.77z"/>
			<path d="M1911.16-85.08c0,0-17.65-0.13-15.61,17.26c0,0-10.29-21.94-21.16-20.66c0,0,14.51,1.6,18.42-12.08
				C1892.82-100.56,1895.43-87.64,1911.16-85.08z"/>
			<path d="M1919.43-55.67c0,0-16.1,3.63-18.67-10.86c0,0,0.5,19.08-13.43,18.97c0,0,15.07-1.33,19.88,6.37
				C1907.21-41.19,1905.8-53.2,1919.43-55.67z"/>
			<path d="M1883.42-118.41c0,0-15.67,0.23-14.18,12.9c0,0-8.72-15.83-18.4-14.69c0,0,12.86,0.9,16.58-9.17
				C1867.42-129.37,1869.5-119.98,1883.42-118.41z"/>
			<path d="M1900.16-153.99c0,0-18.17,1.77-13.4,18.08c0,0-10.25-18.25-21.12-15.07c0,0,16.97-5.85,15.5-14.27
				C1881.14-165.25,1887.67-152.99,1900.16-153.99z"/>
			<path d="M1797.33,118.92c0,0-17.65-0.13-15.61,17.26c0,0-10.29-21.94-21.16-20.66c0,0,14.51,1.6,18.42-12.08
				C1778.98,103.44,1781.6,116.36,1797.33,118.92z"/>
			<path d="M1778.59,12.38c0,0-21.16-1.93-18.62,19.82c0,0-8.49-25.45-21.54-23.92c0,0,20.53-3.51,20.34-14.51
				C1758.77-6.23,1764.07,10.78,1778.59,12.38z"/>
			<path d="M1664.99,86.4c0,0-20.4,4.6-23.65-13.76c0,0,0.63,24.17-17.02,24.04c0,0,19.09-1.69,25.19,8.07
				C1649.51,104.75,1647.73,89.53,1664.99,86.4z"/>
			<path d="M1687.57,38.12c0,0-17.65-0.13-15.61,17.26c0,0-10.29-21.94-21.16-20.66c0,0,14.51,1.6,18.42-12.08
				C1669.22,22.64,1671.84,35.56,1687.57,38.12z"/>
			<path d="M1668.83,62.76c0,0-14.75-1.57-12.84,14.69c0,0-6.07-19.07-15.14-18c0,0,14.27-2.5,14.08-10.72
				C1654.92,48.73,1658.71,61.47,1668.83,62.76z"/>
			<path d="M1638.28,10.63c0,0-19.58,7.34-25.31-10.4c0,0,3.93,23.86-13.57,26.14c0,0,18.68-4.28,26.06,4.55
				C1625.45,30.92,1621.6,16.09,1638.28,10.63z"/>
			<path d="M1542.81,6.6c0,0-17.65-0.13-15.61,17.26c0,0-10.29-21.94-21.16-20.66c0,0,14.51,1.6,18.42-12.08
				C1524.46-8.88,1527.08,4.04,1542.81,6.6z"/>
			<path d="M1544.69,110.68c0,0-20.4,5.96-10.07,25.26c0,0-17.22-20.58-28.8-14.38c0,0,17.82-10.78,13.62-20.95
				C1519.43,100.61,1530.59,114.5,1544.69,110.68z"/>
			<path d="M1705.6-95.93c0,0-17.85,4.02-20.7-12.04c0,0,0.55,21.15-14.89,21.03c0,0,16.7-1.48,22.04,7.06
				C1692.06-79.88,1690.5-93.19,1705.6-95.93z"/>
			<path d="M1711.74-125.75c0,0-16.21,0.15-14.59,13.97c0,0-9.13-17.32-19.14-16.15c0,0,13.31,1.07,17.1-9.89
				C1695.11-137.82,1697.33-127.57,1711.74-125.75z"/>
			<path d="M1746.81-134.92c0,0-14.92,3.38-17.32-10.23c0,0,0.49,17.93-12.42,17.8c0,0,13.96-1.23,18.44,6.01
				C1735.51-121.34,1734.18-132.63,1746.81-134.92z"/>
			<path d="M1787.62-121.4c0,0-12.31,3.08-14.58-10.55c0,0,0.76,17.89-9.95,17.51c0,0,11.56-0.95,15.42,6.37
				C1778.51-108.07,1777.19-119.36,1787.62-121.4z"/>
		</g>
	</g>
	<g>
		<path class="st1" d="M1284.84,87.85"/>
		<path class="st1" d="M1277.14,51.93"/>
		<path class="st1" d="M1281.25,36.02"/>
		<path class="st1" d="M1273.04,67.83"/>
		<g>
			<path d="M1281.23,22.76c0,0,5.13,11.99,16.62,5.22c0,0-12.2,13.76-8.1,20.73c0,0-3.18-10.32-13.85-8.73
				C1275.9,39.98,1284.1,34.21,1281.23,22.76z"/>
			<path d="M1423.89-256.93c0,0,12.45,16.8-3.02,27.2c0,0,21.85-10.34,28.86,5.85c0,0-9.26-16.78-2.8-26.3
				C1446.93-250.19,1433.73-242.4,1423.89-256.93z"/>
			<path d="M1453.16-178.41c0,0,7.01,16.2,22.09,7.3c0,0-15.91,18.27-10.35,27.7c0,0-4.4-13.92-18.49-11.97
				C1446.41-155.37,1457.17-162.98,1453.16-178.41z"/>
			<path d="M1487.9-189.15c0,0,6.79,20.14,25.65,9.02c0,0-19.85,18.06-13.18,29.37c0,0-11.51-17.36-21.49-12.74
				C1478.88-163.5,1492.3-175.22,1487.9-189.15z"/>
			<path d="M1378.17-233.64c0,0,5.34,20.57,24.94,10.83c0,0-21.09,16.59-15.24,28.36c0,0-10.24-18.14-20.53-14.24
				C1367.34-208.7,1381.56-219.43,1378.17-233.64z"/>
			<path d="M1415.17-56.22c0,0,12.45,16.8-3.02,27.2c0,0,21.85-10.34,28.86,5.85c0,0-9.26-16.78-2.8-26.3
				C1438.21-49.47,1425.01-41.69,1415.17-56.22z"/>
			<path d="M1264.42-76.13c0,0,7.01,16.2,22.09,7.3c0,0-15.91,18.27-10.35,27.7c0,0-4.4-13.92-18.49-11.97
				C1257.67-53.09,1268.43-60.7,1264.42-76.13z"/>
			<path d="M1287.98-95.58c0,0,9.83,13.26-2.39,21.47c0,0,17.25-8.17,22.78,4.62c0,0-7.31-13.24-2.21-20.76
				C1306.16-90.25,1295.74-84.11,1287.98-95.58z"/>
			<path d="M1245.14-37.28c0,0,6.54,14.24,17.53,7.76c0,0-10.95,14.38-6,22.77c0,0-4.37-12.12-15.09-11.46
				C1241.58-18.22,1249.33-23.91,1245.14-37.28z"/>
			<path d="M1205.83-38.22c0,0,8.96,15.9,21.95,4.95c0,0-12.55,16.75-5.25,25.41c0,0-12.21-13.16-19.31-8.41
				C1203.22-16.26,1211.79-27.19,1205.83-38.22z"/>
			<path d="M1497.02-54.44c0,0,7.01,16.2,22.09,7.3c0,0-15.91,18.27-10.35,27.7c0,0-4.4-13.92-18.49-11.97
				C1490.28-31.41,1501.03-39.02,1497.02-54.44z"/>
			<path d="M1407.14,5.75c0,0,6.79,20.14,25.65,9.02c0,0-19.85,18.06-13.18,29.37c0,0-11.51-17.36-21.49-12.74
				C1398.12,31.4,1411.54,19.68,1407.14,5.75z"/>
			<path d="M1520.76,79.75c0,0,12.45,16.8-3.02,27.2c0,0,21.85-10.34,28.86,5.85c0,0-9.26-16.78-2.8-26.3
				C1543.79,86.49,1530.59,94.28,1520.76,79.75z"/>
			<path d="M1467.47,78.61c0,0,7.01,16.2,22.09,7.3c0,0-15.91,18.27-10.35,27.7c0,0-4.4-13.92-18.49-11.97
				C1460.72,101.65,1471.48,94.03,1467.47,78.61z"/>
			<path d="M1497.58,85.79c0,0,4.53,14.12,18.63,5.81c0,0-14.99,13.26-10.35,21.13c0,0-8.05-12.05-15.49-8.54
				C1490.37,104.19,1500.49,95.57,1497.58,85.79z"/>
			<path d="M1462.24,134.8c0,0,14.63,14.94,0.72,27.35c0,0,20.24-13.23,29.39,1.85c0,0-11.46-15.36-6.37-25.67
				C1485.99,138.34,1473.98,147.85,1462.24,134.8z"/>
			<path d="M1497.14,223.76c0,0,7.01,16.2,22.09,7.3c0,0-15.91,18.27-10.35,27.7c0,0-4.4-13.92-18.49-11.97
				C1490.4,246.79,1501.15,239.18,1497.14,223.76z"/>
			<path d="M1591.58,179.98c0,0,13.69,16.25,27.17-1c0,0-11.86,24.07-1.51,32.16c0,0-17.06-11.94-24.66-3.99
				C1592.58,207.15,1600.77,191.33,1591.58,179.98z"/>
			<path d="M1337.56,116.28c0,0,10.89,14.7-2.65,23.8c0,0,19.12-9.05,25.26,5.12c0,0-8.1-14.68-2.45-23.02
				C1357.72,122.19,1346.17,129,1337.56,116.28z"/>
			<path d="M1307.8,122.72c0,0,6.69,14.77,18.68,7.7c0,0-12.15,15.35-7.04,24.03c0,0-4.4-12.61-15.95-11.64
				C1303.49,142.81,1311.97,136.64,1307.8,122.72z"/>
			<path d="M1285.24,94.35c0,0,9.12,12.28-2.36,19.98c0,0,16.2-7.69,21.3,4.16c0,0-6.77-12.27-1.95-19.29
				C1302.24,99.2,1292.45,104.97,1285.24,94.35z"/>
			<path d="M1281.12,51.56c0,0,7.79,10.02-3.76,17.6c0,0,16.06-7.93,20.04,2.02c0,0-5.54-10.19-0.41-16.68
				C1297,54.5,1287.2,60.28,1281.12,51.56z"/>
		</g>
	</g>
</g>
</svg>
