<?xml version="1.0" encoding="utf-8"?>
<!-- Generator: Adobe Illustrator 26.3.1, SVG Export Plug-In . SVG Version: 6.00 Build 0)  -->
<svg version="1.1" id="Vrstva_1" xmlns="http://www.w3.org/2000/svg" xmlns:xlink="http://www.w3.org/1999/xlink" x="0px" y="0px"
	 viewBox="0 0 1920 1080" style="enable-background:new 0 0 1920 1080;" xml:space="preserve">
<style type="text/css">
	.st0{clip-path:url(#SVGID_00000047062190825710448070000012551788959195190422_);}
	.st1{fill:#EEF2FA;}
	.st2{fill:#FFFFFF;}
</style>
<g>
	<defs>
		<rect id="SVGID_1_" x="942.96" y="524.66" width="35.4" height="32"/>
	</defs>
	<clipPath id="SVGID_00000016073750856050635420000004901367956944235906_">
		<use xlink:href="#SVGID_1_"  style="overflow:visible;"/>
	</clipPath>
	<g id="Group_31" style="clip-path:url(#SVGID_00000016073750856050635420000004901367956944235906_);">
		<g>
			<path id="Path_73-2" class="st1" d="M945.84,556.66h-2.88v-5.77h2.88c5.11,0,6.74-5.09,8.63-12.85
				c1.53-6.27,3.27-13.38,9.82-13.38c4.12,0,5.45,3.77,6.32,6.27c1.25,3.57,2,4.92,4.86,4.92h2.88v5.77h-2.88
				c-7.22,0-9.15-5.49-10.3-8.77c-0.25-0.83-0.59-1.64-1.01-2.41c-0.43,0.02-1.06,0.18-1.88,1.81c-0.98,2.31-1.72,4.72-2.21,7.17
				C958.3,546.69,955.87,556.66,945.84,556.66"/>
			<g transform="matrix(1, 0, 0, 1, 0, 0)">
				<path id="Path_73-3" class="st2" d="M945.84,556.66h-2.88v-5.77h2.88c5.11,0,6.74-5.09,8.63-12.85
					c1.53-6.27,3.27-13.38,9.82-13.38c4.12,0,5.45,3.77,6.32,6.27c1.25,3.57,2,4.92,4.86,4.92h2.88v5.77h-2.88
					c-7.22,0-9.15-5.49-10.3-8.77c-0.25-0.83-0.59-1.64-1.01-2.41c-0.43,0.02-1.06,0.18-1.88,1.81c-0.98,2.31-1.72,4.72-2.21,7.17
					C958.3,546.69,955.87,556.66,945.84,556.66"/>
			</g>
		</g>
		<g>
			<rect id="Rectangle_48-2" x="943.04" y="524.95" class="st1" width="4.61" height="22.49"/>
			<g transform="matrix(1, 0, 0, 1, 0, 0)">
				<rect id="Rectangle_48-3" x="943.04" y="524.95" class="st2" width="4.61" height="22.49"/>
			</g>
		</g>
		<g>
			<rect id="Rectangle_49-2" x="958.47" y="551.33" class="st1" width="19.6" height="4.61"/>
			<g transform="matrix(1, 0, 0, 1, 0, 0)">
				<rect id="Rectangle_49-3" x="958.47" y="551.33" class="st2" width="19.6" height="4.61"/>
			</g>
		</g>
	</g>
</g>
</svg>
