<?xml version="1.0" encoding="utf-8"?>
<!-- Generator: Adobe Illustrator 26.2.1, SVG Export Plug-In . SVG Version: 6.00 Build 0)  -->
<svg version="1.1" id="Vrstva_1" xmlns="http://www.w3.org/2000/svg" xmlns:xlink="http://www.w3.org/1999/xlink" x="0px" y="0px"
	 viewBox="0 0 595.28 841.89" style="enable-background:new 0 0 595.28 841.89;" xml:space="preserve">
<style type="text/css">
	.st0{fill:#31286E;}
	.st1{fill:#BF2173;}
</style>
<g>
	<path class="st0" d="M285.29,165.01c-102.98,2.31-184.58,87.66-182.28,190.63c2.31,102.98,87.66,184.58,190.63,182.28
		s184.58-87.66,182.28-190.63l-187.05-0.31L285.29,165.01"/>
	<path class="st0" d="M475.9,346.63c0.01,0.22,0.02,0.44,0.02,0.66C475.92,347.29,475.92,347.06,475.9,346.63z"/>
</g>
<path class="st1" d="M516.82,306.89c0-0.22-0.01-0.44-0.02-0.66c-0.16-5.34-1.94-42.82-20.59-82.55
	c-25.05-48.61-70.81-84.73-125.49-96.81c-12.98-2.52-27.1-4.05-42.48-4.37l2.6,186.98L516.82,306.89z"/>
</svg>
