<?xml version="1.0" encoding="UTF-8"?><svg id="Vrstva_1" xmlns="http://www.w3.org/2000/svg" viewBox="0 0 167 72"><defs><style>.cls-1{fill:#fff;}</style></defs><path class="cls-1" d="M28.53,15.18c-5.24,0-8.92,1.18-11.04,3.54-2.09,2.29-3.13,5.67-3.13,10.12v7.19c0,4.45,1.04,7.82,3.13,10.12,2.12,2.36,5.8,3.55,11.04,3.55s8.92-1.18,11.04-3.55c2.09-2.29,3.13-5.67,3.13-10.12v-7.19c0-4.45-1.04-7.82-3.13-10.12-2.12-2.36-5.8-3.54-11.04-3.54Zm7.24,20.86h0c0,2.64-.48,4.49-1.44,5.55-.96,1.13-2.89,1.7-5.8,1.7s-4.81-.57-5.8-1.7c-.96-1.06-1.44-2.91-1.44-5.55v-7.19c0-2.64,.48-4.49,1.45-5.55,.99-1.13,2.93-1.7,5.8-1.7s4.81,.57,5.8,1.7c.96,1.06,1.44,2.91,1.44,5.55v7.19Z"/><path class="cls-1" d="M67.77,36.45c4.62-1.2,6.93-4.57,6.93-10.12h0c0-7.12-3.78-10.69-11.35-10.69h-8.42c-2.16,0-3.72,.49-4.7,1.46-.98,.98-1.47,2.54-1.47,4.7v24.25c-.09,.83,.12,1.67,.59,2.36,.69,.5,1.54,.72,2.39,.62h.92c.85,.1,1.7-.12,2.39-.62,.47-.69,.68-1.53,.59-2.36v-9.09h4.68l6.69,9.39c.68,.99,14.03,18.81,14.64,19.15,.61,.34,.34,.75,1.5,.75h3.38c1.2,0,3.58-.41,3.76-.75s-14.37-18.19-15.02-19.15l-7.5-9.9Zm-4.42-5.91h-7.71v-6.93c-.02-.13-.02-.26,0-.39,.11-.74,.8-1.26,1.54-1.16h6.17c1.23-.11,2.45,.26,3.42,1.03,.77,.89,1.15,2.06,1.05,3.24,0,2.81-1.49,4.21-4.47,4.21Z"/><path class="cls-1" d="M81.69,46.06c-.09,.83,.12,1.67,.59,2.36,.69,.5,1.54,.72,2.39,.62h.92c.85,.1,1.7-.12,2.39-.62,.47-.69,.68-1.53,.59-2.36V18.63c.09-.83-.12-1.67-.59-2.36-.69-.5-1.54-.72-2.39-.62h-.92c-.85-.1-1.7,.12-2.39,.62-.48,.69-.68,1.53-.59,2.36v27.43h0Z"/><path class="cls-1" d="M150.63,49.66c2.47,0,4.23-.6,5.29-1.8,1.06-1.2,1.59-3.24,1.59-6.11V18.63c.09-.83-.12-1.67-.59-2.36-.69-.5-1.54-.72-2.39-.62h-.72c-.85-.1-1.7,.12-2.39,.62-.48,.69-.68,1.53-.59,2.36v23.83c.03,.39-.02,.79-.15,1.16-.13,.2-.37,.31-.62,.28-.48,0-.79-.36-.92-1.08l-5.34-21.52c-.58-2.4-1.4-4.04-2.44-4.93-1.38-.99-3.06-1.46-4.75-1.34-2.57,0-4.4,.6-5.5,1.8s-1.64,3.24-1.64,6.11v23.11h0c-.09,.83,.12,1.67,.59,2.36,.69,.5,1.54,.72,2.39,.62h.72c.85,.1,1.7-.12,2.39-.62,.48-.69,.68-1.53,.59-2.36V22.33c-.03-.42,.02-.85,.13-1.26,.09-.18,.28-.28,.59-.28,.24-.03,.48,.07,.64,.26,.19,.37,.32,.77,.39,1.18l5.24,20.96c.62,2.43,1.46,4.12,2.54,5.06,1.43,1.05,3.19,1.55,4.96,1.41Z"/><path class="cls-1" d="M94.09,51.92h-1.63c-.42,0-.72,.1-.91,.29-.19,.19-.28,.49-.28,.9v5.59c0,.15,.03,.25,.08,.3s.15,.08,.3,.08h.11c.15,0,.25-.03,.3-.08,.05-.05,.08-.15,.08-.3v-2.24h1.96c.83,0,1.43-.18,1.81-.56,.38-.37,.57-.94,.57-1.71s-.19-1.35-.57-1.72c-.38-.37-.98-.55-1.82-.55Zm1.19,3.41c-.22,.22-.62,.33-1.19,.33h-1.96v-2.42c0-.18,.04-.32,.12-.4,.08-.08,.21-.12,.4-.12h1.44c.56,0,.96,.11,1.19,.33,.23,.22,.34,.6,.34,1.13s-.11,.92-.34,1.14Z"/><path class="cls-1" d="M99.84,52.91c-.81,0-1.46,.28-1.95,.83-.49,.56-.74,1.33-.74,2.34s.24,1.75,.72,2.31c.48,.57,1.13,.85,1.97,.85s1.46-.27,1.94-.82c.49-.55,.73-1.33,.73-2.34s-.24-1.79-.73-2.34c-.49-.55-1.13-.83-1.94-.83Zm1.21,4.89c-.28,.38-.69,.57-1.21,.57s-.93-.19-1.22-.58c-.29-.39-.43-.96-.43-1.71s.14-1.35,.43-1.73c.28-.38,.69-.57,1.22-.57s.93,.19,1.21,.57,.42,.96,.42,1.73-.14,1.34-.43,1.72Z"/><g><path class="cls-1" d="M125.6,31.3c-14.58-2.01-17.34-20.47-17.36-20.62h0c-.02,.14-2.83,18.42-17.41,20.43,0,0,16.41,.72,17.37,23.39v2.28c0-.41,.01-.8,.02-1.19,0,.34,.02,.67,.02,1.01v-2.03c1-22.57,17.36-23.28,17.36-23.28Z"/><path class="cls-1" d="M105.94,52.94c-.4,0-.78,.07-1.14,.21s-.65,.34-.88,.6c-.24,.26-.43,.58-.57,.97-.14,.38-.21,.84-.21,1.36s.07,.99,.21,1.38c.14,.39,.33,.72,.57,.97s.54,.45,.89,.58,.72,.19,1.13,.19c.21,0,.39-.01,.53-.04,.14-.03,.29-.07,.46-.12,.12-.03,.26-.08,.41-.15s.28-.12,.38-.17v-1.13h-.06c-.23,.21-.49,.39-.79,.53s-.61,.2-.94,.2c-.54,0-.97-.2-1.28-.59-.31-.4-.46-.95-.46-1.66s.16-1.28,.48-1.68c.32-.4,.74-.59,1.26-.59,.17,0,.36,.03,.55,.08,.19,.05,.36,.12,.49,.19,.16,.08,.3,.16,.41,.24,.11,.08,.21,.15,.28,.21h.06v-1.13c-.24-.12-.51-.23-.82-.32-.31-.09-.62-.14-.95-.14Z"/><polygon class="cls-1" points="113.27 53.07 112.01 53.07 109.64 55.61 109.64 50.72 108.63 50.72 108.63 59.07 109.64 59.07 109.64 56.57 110.04 56.18 112.28 59.07 113.6 59.07 110.81 55.58 113.27 53.07"/><path class="cls-1" d="M117.96,53.57c-.21-.23-.46-.4-.75-.5-.29-.11-.62-.16-.99-.16-.83,0-1.5,.29-2.01,.87-.51,.58-.77,1.36-.77,2.33s.26,1.76,.79,2.3,1.27,.81,2.23,.81c.24,0,.44-.01,.6-.04,.16-.03,.34-.07,.54-.12,.14-.04,.3-.09,.47-.16,.17-.07,.32-.13,.44-.17v-1.1h-.06c-.08,.07-.19,.14-.31,.22-.12,.08-.28,.16-.46,.24-.17,.08-.36,.14-.58,.19s-.43,.08-.65,.08c-.62,0-1.1-.18-1.46-.55-.35-.37-.53-.9-.53-1.6h4.16v-.55c0-.48-.06-.88-.17-1.22-.11-.33-.28-.61-.49-.84Zm-3.49,1.83c.02-.25,.07-.48,.15-.67,.08-.19,.19-.37,.34-.52,.15-.15,.33-.27,.51-.35,.19-.08,.42-.12,.69-.12s.5,.04,.68,.12c.18,.08,.34,.19,.45,.34,.11,.14,.19,.3,.25,.5,.06,.2,.09,.43,.1,.7h-3.17Z"/></g><path class="cls-1" d="M120.72,51.35h-1.01v1.72h-.68v.84h.68v3.33c0,.68,.15,1.17,.46,1.49,.31,.31,.74,.47,1.29,.47,.17,0,.34-.02,.54-.05s.39-.07,.58-.13v-.91h-.06c-.07,.03-.18,.07-.33,.12-.15,.05-.31,.07-.48,.07-.23,0-.42-.03-.55-.09-.14-.06-.23-.16-.3-.28-.07-.14-.11-.3-.12-.46-.01-.17-.02-.4-.02-.7v-2.85h1.86v-.84h-1.86v-1.72Z"/><path class="cls-1" d="M130.68,51.92h-3.11c-.42,0-.72,.1-.91,.29-.19,.19-.28,.49-.28,.9v4.77c0,.41,.09,.71,.28,.9,.19,.19,.49,.29,.91,.29h3.11c.14,0,.23-.02,.27-.07s.07-.13,.07-.27v-.12c0-.14-.02-.23-.07-.28s-.14-.07-.27-.07h-2.93c-.18,0-.32-.04-.4-.12-.08-.08-.12-.21-.12-.4v-2h3c.14,0,.23-.02,.28-.07s.07-.14,.07-.28v-.12c0-.14-.02-.23-.07-.27s-.14-.07-.28-.07h-3v-1.71c0-.18,.04-.32,.12-.4,.08-.08,.21-.12,.4-.12h2.93c.14,0,.23-.02,.27-.07s.07-.14,.07-.28v-.12c0-.14-.02-.23-.07-.28s-.14-.07-.27-.07Z"/><path class="cls-1" d="M135.84,53.32c-.25-.14-.48-.24-.7-.31-.22-.07-.48-.1-.78-.1-.34,0-.67,.07-.97,.22s-.57,.35-.79,.62c-.24,.29-.43,.62-.56,1.01-.14,.38-.2,.84-.2,1.37s.05,.95,.16,1.34,.26,.72,.46,.98c.19,.26,.43,.46,.71,.6,.28,.14,.58,.2,.91,.2,.2,0,.38-.02,.54-.06,.15-.04,.3-.09,.45-.16,.15-.07,.29-.15,.4-.24,.11-.09,.25-.19,.41-.33v.61h1.01v-8.36h-1.01v2.6Zm0,4.3c-.24,.2-.49,.37-.76,.49s-.54,.18-.8,.18c-.5,0-.86-.19-1.08-.56s-.34-.91-.34-1.62,.15-1.29,.44-1.68c.29-.39,.7-.58,1.22-.58,.23,0,.45,.02,.65,.07,.2,.05,.42,.13,.67,.25v3.46Z"/><rect class="cls-1" x="138.27" y="51.02" width="1.15" height="1.05"/><rect class="cls-1" x="138.34" y="53.07" width="1.01" height="6"/><path class="cls-1" d="M141.92,51.35h-1.01v1.72h-.68v.84h.68v3.33c0,.68,.15,1.17,.46,1.49,.31,.31,.74,.47,1.29,.47,.16,0,.34-.02,.54-.05,.19-.03,.39-.07,.58-.13v-.91h-.06c-.07,.03-.18,.07-.33,.12-.15,.05-.31,.07-.48,.07-.23,0-.42-.03-.55-.09-.14-.06-.23-.16-.29-.28-.07-.14-.11-.3-.12-.46-.01-.17-.02-.4-.02-.7v-2.85h1.86v-.84h-1.86v-1.72Z"/><rect class="cls-1" x="144.48" y="51.02" width="1.15" height="1.05"/><rect class="cls-1" x="144.55" y="53.07" width="1.01" height="6"/><path class="cls-1" d="M149.3,52.91c-.81,0-1.46,.28-1.95,.83-.49,.56-.74,1.33-.74,2.34s.24,1.75,.72,2.31c.48,.57,1.13,.85,1.97,.85s1.46-.27,1.94-.82c.49-.55,.73-1.33,.73-2.34s-.24-1.79-.73-2.34c-.49-.55-1.14-.83-1.94-.83Zm1.21,4.89c-.28,.38-.69,.57-1.21,.57s-.93-.19-1.22-.58c-.29-.39-.43-.96-.43-1.71s.14-1.35,.43-1.73c.28-.38,.69-.57,1.22-.57s.93,.19,1.21,.57c.28,.38,.42,.96,.42,1.73s-.14,1.34-.43,1.72Z"/><path class="cls-1" d="M157.23,53.49c-.33-.39-.79-.58-1.39-.58-.33,0-.64,.07-.93,.21-.29,.14-.59,.35-.89,.62v-.67h-1.01v6h1.01v-4.48c.25-.21,.51-.39,.78-.52,.27-.13,.53-.2,.78-.2s.46,.04,.6,.11c.15,.07,.26,.19,.34,.34,.08,.14,.13,.33,.15,.57,.03,.24,.04,.5,.04,.77v3.42h1.01v-3.89c0-.74-.17-1.3-.5-1.69Z"/></svg>