<?xml version="1.0" encoding="UTF-8"?><svg id="a" xmlns="http://www.w3.org/2000/svg" viewBox="0 0 329.46 324.26"><defs><style>.b{fill:#6c388d;}.c{fill:#c73281;}.d{fill:#878787;}.e{fill:none;}</style></defs><g><path class="b" d="M156.96,35.5c-75.11,0-136,60.89-136,136s60.89,136,136,136,136-60.89,136-136S232.07,35.5,156.96,35.5Zm0,242c-58.54,0-106-47.23-106-105.5s47.46-105.5,106-105.5,106,47.23,106,105.5-47.46,105.5-106,105.5Z"/><rect class="b" x="270.46" y="147" width="43" height="43"/><rect class="b" x="140.46" y="291" width="32" height="32"/><rect class="b" x="4.46" y="155" width="32" height="32"/><rect class="b" x="136.46" y="14" width="43" height="43"/><rect class="b" x="205.46" y="34" width="43" height="43" transform="translate(65.42 224.31) rotate(-60)"/><rect class="b" x="252.46" y="81" width="43" height="43" transform="translate(-14.55 150.71) rotate(-30)"/><rect class="b" x="1.46" y="146" width="43" height="43"/><rect class="b" x="135.46" y="13" width="43" height="43"/><rect class="b" x="66.46" y="33" width="43" height="43" transform="translate(-15.47 51.28) rotate(-30)"/><rect class="b" x="19.46" y="80" width="43" height="43" transform="translate(-65.78 77.29) rotate(-55.24)"/><rect class="b" x="269.81" y="148.35" width="43" height="43" transform="translate(119.93 460.27) rotate(-89.7)"/><rect class="b" x="135.11" y="280.65" width="43" height="43" transform="translate(-146.35 457.17) rotate(-89.7)"/><rect class="b" x="204.22" y="261.01" width="43" height="43" transform="translate(-110.32 148.94) rotate(-29.7)"/><rect class="b" x="251.46" y="214.26" width="43" height="43" transform="translate(-76.81 323.78) rotate(-54.94)"/><rect class="b" x=".11" y="148.85" width="43" height="43" transform="translate(-.9 .12) rotate(-.3)"/><rect class="b" x="134.81" y="281.15" width="43" height="43" transform="translate(-1.59 .83) rotate(-.3)"/><rect class="b" x="65.71" y="261.51" width="43" height="43" transform="translate(-201.83 218.55) rotate(-60.3)"/><rect class="b" x="18.46" y="214.76" width="43" height="43" transform="translate(-128.46 65.82) rotate(-35.06)"/></g><g><path class="e" d="M156.96,66.5c-.17,0-.33,0-.5,0v104.49h106.49c-.54-57.8-47.78-104.5-105.99-104.5Z"/><path class="e" d="M156.46,0V13h22v1h1v23.36c9.91,1.65,19.45,4.37,28.51,8.04l11.12-19.27,37.24,21.5-11.56,20.02c6.13,5.19,11.8,10.91,16.93,17.1l20.13-11.62,21.5,37.24-19.75,11.4c3.17,8.06,5.59,16.5,7.17,25.23h22.71v24h16V0H156.46Z"/><path class="c" d="M270.54,148.24v-1.24h20.22c-1.58-8.73-3.99-17.17-7.15-25.23l-17.42,10.1-21.42-37.24,17.05-9.88c-5.11-6.19-10.76-11.91-16.87-17.1l-9.9,17.21-37.1-21.5,10.34-17.97c-9.02-3.67-18.53-6.39-28.4-8.04v19.64h-22.42v9.5c57.99,0,105.05,46.7,105.59,104.5h6.83l.12-22.76h.54Z"/><polygon class="d" points="290.76 147 270.46 147 270.46 148.24 312.92 148.47 312.81 171 313.46 171 313.46 147 290.76 147"/><polygon class="e" points="179.46 57 179.46 37.36 179.46 14 178.46 14 178.46 56 156.46 56 156.46 57 156.96 57 179.46 57"/><polygon class="c" points="234.83 84.87 244.77 67.65 256.33 47.63 219.09 26.13 207.97 45.4 197.59 63.37 234.83 84.87"/><polygon class="c" points="266.09 131.87 283.58 121.77 303.33 110.37 281.83 73.13 261.7 84.75 244.59 94.63 266.09 131.87"/><polygon class="c" points="180.12 58.94 179.88 14.01 179.87 12.94 157.34 13.06 157.59 59.06 180.12 58.94"/><polygon class="c" points="270.46 144 269.93 144 269.81 171 312.81 171 312.92 144.27 270.46 144"/></g></svg>